<mxfile host="app.diagrams.net" agent="Mozilla/5.0 (Windows NT 10.0; Win64; x64) AppleWebKit/537.36 (KHTML, like Gecko) Chrome/131.0.0.0 Safari/537.36" version="25.0.3">
  <diagram name="Página-1" id="HSZT663vRmxZ98BUvP8N">
    <mxGraphModel grid="1" page="1" gridSize="10" guides="1" tooltips="1" connect="1" arrows="1" fold="1" pageScale="1" pageWidth="827" pageHeight="1169" math="0" shadow="0">
      <root>
        <mxCell id="0" />
        <mxCell id="1" parent="0" />
        <mxCell id="AekI4GGU7sX0zfazdIC0-1" value="" style="shape=table;startSize=0;container=1;collapsible=0;childLayout=tableLayout;" vertex="1" parent="1">
          <mxGeometry x="160" y="130" width="970" height="40" as="geometry" />
        </mxCell>
        <mxCell id="AekI4GGU7sX0zfazdIC0-2" value="" style="shape=tableRow;horizontal=0;startSize=0;swimlaneHead=0;swimlaneBody=0;strokeColor=inherit;top=0;left=0;bottom=0;right=0;collapsible=0;dropTarget=0;fillColor=none;points=[[0,0.5],[1,0.5]];portConstraint=eastwest;" vertex="1" parent="AekI4GGU7sX0zfazdIC0-1">
          <mxGeometry width="970" height="40" as="geometry" />
        </mxCell>
        <mxCell id="AekI4GGU7sX0zfazdIC0-3" value="Cliente" style="shape=partialRectangle;html=1;whiteSpace=wrap;connectable=0;strokeColor=inherit;overflow=hidden;fillColor=none;top=0;left=0;bottom=0;right=0;pointerEvents=1;" vertex="1" parent="AekI4GGU7sX0zfazdIC0-2">
          <mxGeometry width="970" height="40" as="geometry">
            <mxRectangle width="970" height="40" as="alternateBounds" />
          </mxGeometry>
        </mxCell>
        <mxCell id="AekI4GGU7sX0zfazdIC0-79" value="" style="shape=table;startSize=0;container=1;collapsible=0;childLayout=tableLayout;" vertex="1" parent="1">
          <mxGeometry x="160" y="210" width="970" height="240" as="geometry" />
        </mxCell>
        <mxCell id="AekI4GGU7sX0zfazdIC0-80" value="" style="shape=tableRow;horizontal=0;startSize=0;swimlaneHead=0;swimlaneBody=0;strokeColor=inherit;top=0;left=0;bottom=0;right=0;collapsible=0;dropTarget=0;fillColor=none;points=[[0,0.5],[1,0.5]];portConstraint=eastwest;" vertex="1" parent="AekI4GGU7sX0zfazdIC0-79">
          <mxGeometry width="970" height="40" as="geometry" />
        </mxCell>
        <mxCell id="AekI4GGU7sX0zfazdIC0-81" value="C001" style="shape=partialRectangle;html=1;whiteSpace=wrap;connectable=0;strokeColor=inherit;overflow=hidden;fillColor=none;top=0;left=0;bottom=0;right=0;pointerEvents=1;" vertex="1" parent="AekI4GGU7sX0zfazdIC0-80">
          <mxGeometry width="100" height="40" as="geometry">
            <mxRectangle width="100" height="40" as="alternateBounds" />
          </mxGeometry>
        </mxCell>
        <mxCell id="AekI4GGU7sX0zfazdIC0-82" value="24598715P" style="shape=partialRectangle;html=1;whiteSpace=wrap;connectable=0;strokeColor=inherit;overflow=hidden;fillColor=none;top=0;left=0;bottom=0;right=0;pointerEvents=1;" vertex="1" parent="AekI4GGU7sX0zfazdIC0-80">
          <mxGeometry x="100" width="100" height="40" as="geometry">
            <mxRectangle width="100" height="40" as="alternateBounds" />
          </mxGeometry>
        </mxCell>
        <mxCell id="AekI4GGU7sX0zfazdIC0-83" value="Juan" style="shape=partialRectangle;html=1;whiteSpace=wrap;connectable=0;strokeColor=inherit;overflow=hidden;fillColor=none;top=0;left=0;bottom=0;right=0;pointerEvents=1;" vertex="1" parent="AekI4GGU7sX0zfazdIC0-80">
          <mxGeometry x="200" width="90" height="40" as="geometry">
            <mxRectangle width="90" height="40" as="alternateBounds" />
          </mxGeometry>
        </mxCell>
        <mxCell id="AekI4GGU7sX0zfazdIC0-84" value="Pérez" style="shape=partialRectangle;html=1;whiteSpace=wrap;connectable=0;strokeColor=inherit;overflow=hidden;fillColor=none;top=0;left=0;bottom=0;right=0;pointerEvents=1;" vertex="1" parent="AekI4GGU7sX0zfazdIC0-80">
          <mxGeometry x="290" width="100" height="40" as="geometry">
            <mxRectangle width="100" height="40" as="alternateBounds" />
          </mxGeometry>
        </mxCell>
        <mxCell id="AekI4GGU7sX0zfazdIC0-85" value="&lt;span style=&quot;font-family: Arial; font-size: 13px; text-align: left; white-space-collapse: preserve; background-color: rgb(255, 255, 255);&quot;&gt;612345678&lt;br/&gt;957587931&lt;/span&gt;" style="shape=partialRectangle;html=1;whiteSpace=wrap;connectable=0;strokeColor=inherit;overflow=hidden;fillColor=none;top=0;left=0;bottom=0;right=0;pointerEvents=1;" vertex="1" parent="AekI4GGU7sX0zfazdIC0-80">
          <mxGeometry x="390" width="100" height="40" as="geometry">
            <mxRectangle width="100" height="40" as="alternateBounds" />
          </mxGeometry>
        </mxCell>
        <mxCell id="AekI4GGU7sX0zfazdIC0-86" value="&lt;span style=&quot;font-family: Arial; font-size: 13px; text-align: left; white-space-collapse: preserve; background-color: rgb(255, 255, 255);&quot;&gt;Calle Mayor 12&lt;/span&gt;&lt;div&gt;&lt;span style=&quot;font-family: Arial; font-size: 13px; text-align: left; white-space-collapse: preserve; background-color: rgb(255, 255, 255);&quot;&gt;Calle Nueva 5&lt;/span&gt;&lt;/div&gt;" style="shape=partialRectangle;html=1;whiteSpace=wrap;connectable=0;strokeColor=inherit;overflow=hidden;fillColor=none;top=0;left=0;bottom=0;right=0;pointerEvents=1;" vertex="1" parent="AekI4GGU7sX0zfazdIC0-80">
          <mxGeometry x="490" width="150" height="40" as="geometry">
            <mxRectangle width="150" height="40" as="alternateBounds" />
          </mxGeometry>
        </mxCell>
        <mxCell id="AekI4GGU7sX0zfazdIC0-87" value="&lt;span style=&quot;font-family: Arial; font-size: 13px; text-align: left; white-space-collapse: preserve; background-color: rgb(255, 255, 255);&quot;&gt;1234567891234567&lt;/span&gt;" style="shape=partialRectangle;html=1;whiteSpace=wrap;connectable=0;strokeColor=inherit;overflow=hidden;fillColor=none;top=0;left=0;bottom=0;right=0;pointerEvents=1;" vertex="1" parent="AekI4GGU7sX0zfazdIC0-80">
          <mxGeometry x="640" width="140" height="40" as="geometry">
            <mxRectangle width="140" height="40" as="alternateBounds" />
          </mxGeometry>
        </mxCell>
        <mxCell id="AekI4GGU7sX0zfazdIC0-88" value="&lt;span style=&quot;font-family: Arial; font-size: 13px; text-align: left; white-space-collapse: preserve; background-color: rgb(255, 255, 255);&quot;&gt;juanperez@gmail.com&lt;/span&gt;" style="shape=partialRectangle;html=1;whiteSpace=wrap;connectable=0;strokeColor=inherit;overflow=hidden;fillColor=none;top=0;left=0;bottom=0;right=0;pointerEvents=1;" vertex="1" parent="AekI4GGU7sX0zfazdIC0-80">
          <mxGeometry x="780" width="190" height="40" as="geometry">
            <mxRectangle width="190" height="40" as="alternateBounds" />
          </mxGeometry>
        </mxCell>
        <mxCell id="AekI4GGU7sX0zfazdIC0-89" value="" style="shape=tableRow;horizontal=0;startSize=0;swimlaneHead=0;swimlaneBody=0;strokeColor=inherit;top=0;left=0;bottom=0;right=0;collapsible=0;dropTarget=0;fillColor=none;points=[[0,0.5],[1,0.5]];portConstraint=eastwest;" vertex="1" parent="AekI4GGU7sX0zfazdIC0-79">
          <mxGeometry y="40" width="970" height="40" as="geometry" />
        </mxCell>
        <mxCell id="AekI4GGU7sX0zfazdIC0-90" value="C002" style="shape=partialRectangle;html=1;whiteSpace=wrap;connectable=0;strokeColor=inherit;overflow=hidden;fillColor=none;top=0;left=0;bottom=0;right=0;pointerEvents=1;" vertex="1" parent="AekI4GGU7sX0zfazdIC0-89">
          <mxGeometry width="100" height="40" as="geometry">
            <mxRectangle width="100" height="40" as="alternateBounds" />
          </mxGeometry>
        </mxCell>
        <mxCell id="AekI4GGU7sX0zfazdIC0-91" value="45267455C" style="shape=partialRectangle;html=1;whiteSpace=wrap;connectable=0;strokeColor=inherit;overflow=hidden;fillColor=none;top=0;left=0;bottom=0;right=0;pointerEvents=1;" vertex="1" parent="AekI4GGU7sX0zfazdIC0-89">
          <mxGeometry x="100" width="100" height="40" as="geometry">
            <mxRectangle width="100" height="40" as="alternateBounds" />
          </mxGeometry>
        </mxCell>
        <mxCell id="AekI4GGU7sX0zfazdIC0-92" value="Ana" style="shape=partialRectangle;html=1;whiteSpace=wrap;connectable=0;strokeColor=inherit;overflow=hidden;fillColor=none;top=0;left=0;bottom=0;right=0;pointerEvents=1;" vertex="1" parent="AekI4GGU7sX0zfazdIC0-89">
          <mxGeometry x="200" width="90" height="40" as="geometry">
            <mxRectangle width="90" height="40" as="alternateBounds" />
          </mxGeometry>
        </mxCell>
        <mxCell id="AekI4GGU7sX0zfazdIC0-93" value="García" style="shape=partialRectangle;html=1;whiteSpace=wrap;connectable=0;strokeColor=inherit;overflow=hidden;fillColor=none;top=0;left=0;bottom=0;right=0;pointerEvents=1;" vertex="1" parent="AekI4GGU7sX0zfazdIC0-89">
          <mxGeometry x="290" width="100" height="40" as="geometry">
            <mxRectangle width="100" height="40" as="alternateBounds" />
          </mxGeometry>
        </mxCell>
        <mxCell id="AekI4GGU7sX0zfazdIC0-94" value="&lt;span style=&quot;font-family: Arial; font-size: 13px; text-align: right; white-space-collapse: preserve; background-color: rgb(255, 255, 255);&quot;&gt;655444333&lt;/span&gt;" style="shape=partialRectangle;html=1;whiteSpace=wrap;connectable=0;strokeColor=inherit;overflow=hidden;fillColor=none;top=0;left=0;bottom=0;right=0;pointerEvents=1;" vertex="1" parent="AekI4GGU7sX0zfazdIC0-89">
          <mxGeometry x="390" width="100" height="40" as="geometry">
            <mxRectangle width="100" height="40" as="alternateBounds" />
          </mxGeometry>
        </mxCell>
        <mxCell id="AekI4GGU7sX0zfazdIC0-95" value="&lt;span style=&quot;font-family: Arial; font-size: 13px; text-align: left; white-space-collapse: preserve; background-color: rgb(255, 255, 255);&quot;&gt;Avenida de la Paz 3&lt;/span&gt;" style="shape=partialRectangle;html=1;whiteSpace=wrap;connectable=0;strokeColor=inherit;overflow=hidden;fillColor=none;top=0;left=0;bottom=0;right=0;pointerEvents=1;" vertex="1" parent="AekI4GGU7sX0zfazdIC0-89">
          <mxGeometry x="490" width="150" height="40" as="geometry">
            <mxRectangle width="150" height="40" as="alternateBounds" />
          </mxGeometry>
        </mxCell>
        <mxCell id="AekI4GGU7sX0zfazdIC0-96" value="&#xa;&lt;span style=&quot;color: rgb(0, 0, 0); font-family: Arial; font-size: 13px; font-style: normal; font-variant-ligatures: normal; font-variant-caps: normal; font-weight: 400; letter-spacing: normal; orphans: 2; text-align: left; text-indent: 0px; text-transform: none; widows: 2; word-spacing: 0px; -webkit-text-stroke-width: 0px; white-space: pre-wrap; background-color: rgb(255, 255, 255); text-decoration-thickness: initial; text-decoration-style: initial; text-decoration-color: initial; display: inline !important; float: none;&quot;&gt;9876543210987654&lt;/span&gt;&#xa;&#xa;" style="shape=partialRectangle;html=1;whiteSpace=wrap;connectable=0;strokeColor=inherit;overflow=hidden;fillColor=none;top=0;left=0;bottom=0;right=0;pointerEvents=1;" vertex="1" parent="AekI4GGU7sX0zfazdIC0-89">
          <mxGeometry x="640" width="140" height="40" as="geometry">
            <mxRectangle width="140" height="40" as="alternateBounds" />
          </mxGeometry>
        </mxCell>
        <mxCell id="AekI4GGU7sX0zfazdIC0-97" value="&lt;span style=&quot;font-family: Arial; font-size: 13px; text-align: left; white-space-collapse: preserve; background-color: rgb(255, 255, 255);&quot;&gt;anagarcia@gmail.com&lt;/span&gt;" style="shape=partialRectangle;html=1;whiteSpace=wrap;connectable=0;strokeColor=inherit;overflow=hidden;fillColor=none;top=0;left=0;bottom=0;right=0;pointerEvents=1;" vertex="1" parent="AekI4GGU7sX0zfazdIC0-89">
          <mxGeometry x="780" width="190" height="40" as="geometry">
            <mxRectangle width="190" height="40" as="alternateBounds" />
          </mxGeometry>
        </mxCell>
        <mxCell id="AekI4GGU7sX0zfazdIC0-98" value="" style="shape=tableRow;horizontal=0;startSize=0;swimlaneHead=0;swimlaneBody=0;strokeColor=inherit;top=0;left=0;bottom=0;right=0;collapsible=0;dropTarget=0;fillColor=none;points=[[0,0.5],[1,0.5]];portConstraint=eastwest;" vertex="1" parent="AekI4GGU7sX0zfazdIC0-79">
          <mxGeometry y="80" width="970" height="40" as="geometry" />
        </mxCell>
        <mxCell id="AekI4GGU7sX0zfazdIC0-99" value="C003" style="shape=partialRectangle;html=1;whiteSpace=wrap;connectable=0;strokeColor=inherit;overflow=hidden;fillColor=none;top=0;left=0;bottom=0;right=0;pointerEvents=1;" vertex="1" parent="AekI4GGU7sX0zfazdIC0-98">
          <mxGeometry width="100" height="40" as="geometry">
            <mxRectangle width="100" height="40" as="alternateBounds" />
          </mxGeometry>
        </mxCell>
        <mxCell id="AekI4GGU7sX0zfazdIC0-100" value="33482058R" style="shape=partialRectangle;html=1;whiteSpace=wrap;connectable=0;strokeColor=inherit;overflow=hidden;fillColor=none;top=0;left=0;bottom=0;right=0;pointerEvents=1;" vertex="1" parent="AekI4GGU7sX0zfazdIC0-98">
          <mxGeometry x="100" width="100" height="40" as="geometry">
            <mxRectangle width="100" height="40" as="alternateBounds" />
          </mxGeometry>
        </mxCell>
        <mxCell id="AekI4GGU7sX0zfazdIC0-101" value="Pedro" style="shape=partialRectangle;html=1;whiteSpace=wrap;connectable=0;strokeColor=inherit;overflow=hidden;fillColor=none;top=0;left=0;bottom=0;right=0;pointerEvents=1;" vertex="1" parent="AekI4GGU7sX0zfazdIC0-98">
          <mxGeometry x="200" width="90" height="40" as="geometry">
            <mxRectangle width="90" height="40" as="alternateBounds" />
          </mxGeometry>
        </mxCell>
        <mxCell id="AekI4GGU7sX0zfazdIC0-102" value="López" style="shape=partialRectangle;html=1;whiteSpace=wrap;connectable=0;strokeColor=inherit;overflow=hidden;fillColor=none;top=0;left=0;bottom=0;right=0;pointerEvents=1;" vertex="1" parent="AekI4GGU7sX0zfazdIC0-98">
          <mxGeometry x="290" width="100" height="40" as="geometry">
            <mxRectangle width="100" height="40" as="alternateBounds" />
          </mxGeometry>
        </mxCell>
        <mxCell id="AekI4GGU7sX0zfazdIC0-103" value="&lt;span style=&quot;font-family: Arial; font-size: 13px; text-align: right; white-space-collapse: preserve; background-color: rgb(255, 255, 255);&quot;&gt;654321098&lt;/span&gt;" style="shape=partialRectangle;html=1;whiteSpace=wrap;connectable=0;strokeColor=inherit;overflow=hidden;fillColor=none;top=0;left=0;bottom=0;right=0;pointerEvents=1;" vertex="1" parent="AekI4GGU7sX0zfazdIC0-98">
          <mxGeometry x="390" width="100" height="40" as="geometry">
            <mxRectangle width="100" height="40" as="alternateBounds" />
          </mxGeometry>
        </mxCell>
        <mxCell id="AekI4GGU7sX0zfazdIC0-104" value="&lt;span style=&quot;font-family: Arial; font-size: 13px; text-align: left; white-space-collapse: preserve; background-color: rgb(255, 255, 255);&quot;&gt;Calle del Sol 7&lt;/span&gt;&lt;div&gt;&lt;span style=&quot;font-family: Arial; font-size: 13px; text-align: left; white-space-collapse: preserve; background-color: rgb(255, 255, 255);&quot;&gt;Plaza de la Luna 1&lt;/span&gt;&lt;/div&gt;" style="shape=partialRectangle;html=1;whiteSpace=wrap;connectable=0;strokeColor=inherit;overflow=hidden;fillColor=none;top=0;left=0;bottom=0;right=0;pointerEvents=1;" vertex="1" parent="AekI4GGU7sX0zfazdIC0-98">
          <mxGeometry x="490" width="150" height="40" as="geometry">
            <mxRectangle width="150" height="40" as="alternateBounds" />
          </mxGeometry>
        </mxCell>
        <mxCell id="AekI4GGU7sX0zfazdIC0-105" value="&lt;span style=&quot;font-family: Arial; font-size: 13px; text-align: left; white-space-collapse: preserve; background-color: rgb(255, 255, 255);&quot;&gt;1234567890123456&lt;/span&gt;" style="shape=partialRectangle;html=1;whiteSpace=wrap;connectable=0;strokeColor=inherit;overflow=hidden;fillColor=none;top=0;left=0;bottom=0;right=0;pointerEvents=1;" vertex="1" parent="AekI4GGU7sX0zfazdIC0-98">
          <mxGeometry x="640" width="140" height="40" as="geometry">
            <mxRectangle width="140" height="40" as="alternateBounds" />
          </mxGeometry>
        </mxCell>
        <mxCell id="AekI4GGU7sX0zfazdIC0-106" value="&lt;span style=&quot;font-family: Arial; font-size: 13px; text-align: left; white-space-collapse: preserve; background-color: rgb(255, 255, 255);&quot;&gt;pedroLop@outlook.com&lt;/span&gt;" style="shape=partialRectangle;html=1;whiteSpace=wrap;connectable=0;strokeColor=inherit;overflow=hidden;fillColor=none;top=0;left=0;bottom=0;right=0;pointerEvents=1;" vertex="1" parent="AekI4GGU7sX0zfazdIC0-98">
          <mxGeometry x="780" width="190" height="40" as="geometry">
            <mxRectangle width="190" height="40" as="alternateBounds" />
          </mxGeometry>
        </mxCell>
        <mxCell id="AekI4GGU7sX0zfazdIC0-107" value="" style="shape=tableRow;horizontal=0;startSize=0;swimlaneHead=0;swimlaneBody=0;strokeColor=inherit;top=0;left=0;bottom=0;right=0;collapsible=0;dropTarget=0;fillColor=none;points=[[0,0.5],[1,0.5]];portConstraint=eastwest;" vertex="1" parent="AekI4GGU7sX0zfazdIC0-79">
          <mxGeometry y="120" width="970" height="40" as="geometry" />
        </mxCell>
        <mxCell id="AekI4GGU7sX0zfazdIC0-108" value="C004" style="shape=partialRectangle;html=1;whiteSpace=wrap;connectable=0;strokeColor=inherit;overflow=hidden;fillColor=none;top=0;left=0;bottom=0;right=0;pointerEvents=1;" vertex="1" parent="AekI4GGU7sX0zfazdIC0-107">
          <mxGeometry width="100" height="40" as="geometry">
            <mxRectangle width="100" height="40" as="alternateBounds" />
          </mxGeometry>
        </mxCell>
        <mxCell id="AekI4GGU7sX0zfazdIC0-109" value="37990706V" style="shape=partialRectangle;html=1;whiteSpace=wrap;connectable=0;strokeColor=inherit;overflow=hidden;fillColor=none;top=0;left=0;bottom=0;right=0;pointerEvents=1;" vertex="1" parent="AekI4GGU7sX0zfazdIC0-107">
          <mxGeometry x="100" width="100" height="40" as="geometry">
            <mxRectangle width="100" height="40" as="alternateBounds" />
          </mxGeometry>
        </mxCell>
        <mxCell id="AekI4GGU7sX0zfazdIC0-110" value="María" style="shape=partialRectangle;html=1;whiteSpace=wrap;connectable=0;strokeColor=inherit;overflow=hidden;fillColor=none;top=0;left=0;bottom=0;right=0;pointerEvents=1;" vertex="1" parent="AekI4GGU7sX0zfazdIC0-107">
          <mxGeometry x="200" width="90" height="40" as="geometry">
            <mxRectangle width="90" height="40" as="alternateBounds" />
          </mxGeometry>
        </mxCell>
        <mxCell id="AekI4GGU7sX0zfazdIC0-111" value="Sánchez" style="shape=partialRectangle;html=1;whiteSpace=wrap;connectable=0;strokeColor=inherit;overflow=hidden;fillColor=none;top=0;left=0;bottom=0;right=0;pointerEvents=1;" vertex="1" parent="AekI4GGU7sX0zfazdIC0-107">
          <mxGeometry x="290" width="100" height="40" as="geometry">
            <mxRectangle width="100" height="40" as="alternateBounds" />
          </mxGeometry>
        </mxCell>
        <mxCell id="AekI4GGU7sX0zfazdIC0-112" value="&lt;span style=&quot;font-family: Arial; font-size: 13px; text-align: left; white-space-collapse: preserve; background-color: rgb(255, 255, 255);&quot;&gt;678901234&lt;br/&gt;957842791&lt;/span&gt;" style="shape=partialRectangle;html=1;whiteSpace=wrap;connectable=0;strokeColor=inherit;overflow=hidden;fillColor=none;top=0;left=0;bottom=0;right=0;pointerEvents=1;" vertex="1" parent="AekI4GGU7sX0zfazdIC0-107">
          <mxGeometry x="390" width="100" height="40" as="geometry">
            <mxRectangle width="100" height="40" as="alternateBounds" />
          </mxGeometry>
        </mxCell>
        <mxCell id="AekI4GGU7sX0zfazdIC0-113" value="&lt;span style=&quot;font-family: Arial; font-size: 13px; text-align: left; white-space-collapse: preserve; background-color: rgb(255, 255, 255);&quot;&gt;Avenida de los Ríos 15&lt;/span&gt;" style="shape=partialRectangle;html=1;whiteSpace=wrap;connectable=0;strokeColor=inherit;overflow=hidden;fillColor=none;top=0;left=0;bottom=0;right=0;pointerEvents=1;" vertex="1" parent="AekI4GGU7sX0zfazdIC0-107">
          <mxGeometry x="490" width="150" height="40" as="geometry">
            <mxRectangle width="150" height="40" as="alternateBounds" />
          </mxGeometry>
        </mxCell>
        <mxCell id="AekI4GGU7sX0zfazdIC0-114" value="&#xa;&lt;span style=&quot;color: rgb(0, 0, 0); font-family: Arial; font-size: 13px; font-style: normal; font-variant-ligatures: normal; font-variant-caps: normal; font-weight: 400; letter-spacing: normal; orphans: 2; text-align: left; text-indent: 0px; text-transform: none; widows: 2; word-spacing: 0px; -webkit-text-stroke-width: 0px; white-space: pre-wrap; background-color: rgb(255, 255, 255); text-decoration-thickness: initial; text-decoration-style: initial; text-decoration-color: initial; display: inline !important; float: none;&quot;&gt;8765432109876543&lt;/span&gt;&#xa;&#xa;" style="shape=partialRectangle;html=1;whiteSpace=wrap;connectable=0;strokeColor=inherit;overflow=hidden;fillColor=none;top=0;left=0;bottom=0;right=0;pointerEvents=1;" vertex="1" parent="AekI4GGU7sX0zfazdIC0-107">
          <mxGeometry x="640" width="140" height="40" as="geometry">
            <mxRectangle width="140" height="40" as="alternateBounds" />
          </mxGeometry>
        </mxCell>
        <mxCell id="AekI4GGU7sX0zfazdIC0-115" value="&lt;span style=&quot;font-family: Arial; font-size: 13px; text-align: left; white-space-collapse: preserve; background-color: rgb(255, 255, 255);&quot;&gt;Msanchez@gmail.com&lt;/span&gt;" style="shape=partialRectangle;html=1;whiteSpace=wrap;connectable=0;strokeColor=inherit;overflow=hidden;fillColor=none;top=0;left=0;bottom=0;right=0;pointerEvents=1;" vertex="1" parent="AekI4GGU7sX0zfazdIC0-107">
          <mxGeometry x="780" width="190" height="40" as="geometry">
            <mxRectangle width="190" height="40" as="alternateBounds" />
          </mxGeometry>
        </mxCell>
        <mxCell id="AekI4GGU7sX0zfazdIC0-116" value="" style="shape=tableRow;horizontal=0;startSize=0;swimlaneHead=0;swimlaneBody=0;strokeColor=inherit;top=0;left=0;bottom=0;right=0;collapsible=0;dropTarget=0;fillColor=none;points=[[0,0.5],[1,0.5]];portConstraint=eastwest;" vertex="1" parent="AekI4GGU7sX0zfazdIC0-79">
          <mxGeometry y="160" width="970" height="40" as="geometry" />
        </mxCell>
        <mxCell id="AekI4GGU7sX0zfazdIC0-117" value="C005" style="shape=partialRectangle;html=1;whiteSpace=wrap;connectable=0;strokeColor=inherit;overflow=hidden;fillColor=none;top=0;left=0;bottom=0;right=0;pointerEvents=1;" vertex="1" parent="AekI4GGU7sX0zfazdIC0-116">
          <mxGeometry width="100" height="40" as="geometry">
            <mxRectangle width="100" height="40" as="alternateBounds" />
          </mxGeometry>
        </mxCell>
        <mxCell id="AekI4GGU7sX0zfazdIC0-118" value="42108667Q" style="shape=partialRectangle;html=1;whiteSpace=wrap;connectable=0;strokeColor=inherit;overflow=hidden;fillColor=none;top=0;left=0;bottom=0;right=0;pointerEvents=1;" vertex="1" parent="AekI4GGU7sX0zfazdIC0-116">
          <mxGeometry x="100" width="100" height="40" as="geometry">
            <mxRectangle width="100" height="40" as="alternateBounds" />
          </mxGeometry>
        </mxCell>
        <mxCell id="AekI4GGU7sX0zfazdIC0-119" value="Luis" style="shape=partialRectangle;html=1;whiteSpace=wrap;connectable=0;strokeColor=inherit;overflow=hidden;fillColor=none;top=0;left=0;bottom=0;right=0;pointerEvents=1;" vertex="1" parent="AekI4GGU7sX0zfazdIC0-116">
          <mxGeometry x="200" width="90" height="40" as="geometry">
            <mxRectangle width="90" height="40" as="alternateBounds" />
          </mxGeometry>
        </mxCell>
        <mxCell id="AekI4GGU7sX0zfazdIC0-120" value="Martínez" style="shape=partialRectangle;html=1;whiteSpace=wrap;connectable=0;strokeColor=inherit;overflow=hidden;fillColor=none;top=0;left=0;bottom=0;right=0;pointerEvents=1;" vertex="1" parent="AekI4GGU7sX0zfazdIC0-116">
          <mxGeometry x="290" width="100" height="40" as="geometry">
            <mxRectangle width="100" height="40" as="alternateBounds" />
          </mxGeometry>
        </mxCell>
        <mxCell id="AekI4GGU7sX0zfazdIC0-121" value="&lt;span style=&quot;font-family: Arial; font-size: 13px; text-align: right; white-space-collapse: preserve; background-color: rgb(255, 255, 255);&quot;&gt;687654321&lt;/span&gt;" style="shape=partialRectangle;html=1;whiteSpace=wrap;connectable=0;strokeColor=inherit;overflow=hidden;fillColor=none;top=0;left=0;bottom=0;right=0;pointerEvents=1;" vertex="1" parent="AekI4GGU7sX0zfazdIC0-116">
          <mxGeometry x="390" width="100" height="40" as="geometry">
            <mxRectangle width="100" height="40" as="alternateBounds" />
          </mxGeometry>
        </mxCell>
        <mxCell id="AekI4GGU7sX0zfazdIC0-122" value="&lt;span style=&quot;font-family: Arial; font-size: 13px; text-align: left; white-space-collapse: preserve; background-color: rgb(255, 255, 255);&quot;&gt;Calle del Mar 22&lt;/span&gt;" style="shape=partialRectangle;html=1;whiteSpace=wrap;connectable=0;strokeColor=inherit;overflow=hidden;fillColor=none;top=0;left=0;bottom=0;right=0;pointerEvents=1;" vertex="1" parent="AekI4GGU7sX0zfazdIC0-116">
          <mxGeometry x="490" width="150" height="40" as="geometry">
            <mxRectangle width="150" height="40" as="alternateBounds" />
          </mxGeometry>
        </mxCell>
        <mxCell id="AekI4GGU7sX0zfazdIC0-123" value="&lt;span style=&quot;font-family: Arial; font-size: 13px; text-align: left; white-space-collapse: preserve; background-color: rgb(255, 255, 255);&quot;&gt;1234567890123456&lt;/span&gt;" style="shape=partialRectangle;html=1;whiteSpace=wrap;connectable=0;strokeColor=inherit;overflow=hidden;fillColor=none;top=0;left=0;bottom=0;right=0;pointerEvents=1;" vertex="1" parent="AekI4GGU7sX0zfazdIC0-116">
          <mxGeometry x="640" width="140" height="40" as="geometry">
            <mxRectangle width="140" height="40" as="alternateBounds" />
          </mxGeometry>
        </mxCell>
        <mxCell id="AekI4GGU7sX0zfazdIC0-124" value="&lt;span style=&quot;font-family: Arial; font-size: 13px; text-align: left; white-space-collapse: preserve; background-color: rgb(255, 255, 255);&quot;&gt;luma@outlook.com&lt;/span&gt;" style="shape=partialRectangle;html=1;whiteSpace=wrap;connectable=0;strokeColor=inherit;overflow=hidden;fillColor=none;top=0;left=0;bottom=0;right=0;pointerEvents=1;" vertex="1" parent="AekI4GGU7sX0zfazdIC0-116">
          <mxGeometry x="780" width="190" height="40" as="geometry">
            <mxRectangle width="190" height="40" as="alternateBounds" />
          </mxGeometry>
        </mxCell>
        <mxCell id="AekI4GGU7sX0zfazdIC0-125" value="" style="shape=tableRow;horizontal=0;startSize=0;swimlaneHead=0;swimlaneBody=0;strokeColor=inherit;top=0;left=0;bottom=0;right=0;collapsible=0;dropTarget=0;fillColor=none;points=[[0,0.5],[1,0.5]];portConstraint=eastwest;" vertex="1" parent="AekI4GGU7sX0zfazdIC0-79">
          <mxGeometry y="200" width="970" height="40" as="geometry" />
        </mxCell>
        <mxCell id="AekI4GGU7sX0zfazdIC0-126" value="C006" style="shape=partialRectangle;html=1;whiteSpace=wrap;connectable=0;strokeColor=inherit;overflow=hidden;fillColor=none;top=0;left=0;bottom=0;right=0;pointerEvents=1;" vertex="1" parent="AekI4GGU7sX0zfazdIC0-125">
          <mxGeometry width="100" height="40" as="geometry">
            <mxRectangle width="100" height="40" as="alternateBounds" />
          </mxGeometry>
        </mxCell>
        <mxCell id="AekI4GGU7sX0zfazdIC0-127" value="30792482F" style="shape=partialRectangle;html=1;whiteSpace=wrap;connectable=0;strokeColor=inherit;overflow=hidden;fillColor=none;top=0;left=0;bottom=0;right=0;pointerEvents=1;" vertex="1" parent="AekI4GGU7sX0zfazdIC0-125">
          <mxGeometry x="100" width="100" height="40" as="geometry">
            <mxRectangle width="100" height="40" as="alternateBounds" />
          </mxGeometry>
        </mxCell>
        <mxCell id="AekI4GGU7sX0zfazdIC0-128" value="Sofía" style="shape=partialRectangle;html=1;whiteSpace=wrap;connectable=0;strokeColor=inherit;overflow=hidden;fillColor=none;top=0;left=0;bottom=0;right=0;pointerEvents=1;" vertex="1" parent="AekI4GGU7sX0zfazdIC0-125">
          <mxGeometry x="200" width="90" height="40" as="geometry">
            <mxRectangle width="90" height="40" as="alternateBounds" />
          </mxGeometry>
        </mxCell>
        <mxCell id="AekI4GGU7sX0zfazdIC0-129" value="Hernandez" style="shape=partialRectangle;html=1;whiteSpace=wrap;connectable=0;strokeColor=inherit;overflow=hidden;fillColor=none;top=0;left=0;bottom=0;right=0;pointerEvents=1;" vertex="1" parent="AekI4GGU7sX0zfazdIC0-125">
          <mxGeometry x="290" width="100" height="40" as="geometry">
            <mxRectangle width="100" height="40" as="alternateBounds" />
          </mxGeometry>
        </mxCell>
        <mxCell id="AekI4GGU7sX0zfazdIC0-130" value="&lt;span style=&quot;font-family: Arial; font-size: 13px; text-align: left; white-space-collapse: preserve; background-color: rgb(255, 255, 255);&quot;&gt;623456786&lt;br/&gt;957227518&lt;/span&gt;" style="shape=partialRectangle;html=1;whiteSpace=wrap;connectable=0;strokeColor=inherit;overflow=hidden;fillColor=none;top=0;left=0;bottom=0;right=0;pointerEvents=1;" vertex="1" parent="AekI4GGU7sX0zfazdIC0-125">
          <mxGeometry x="390" width="100" height="40" as="geometry">
            <mxRectangle width="100" height="40" as="alternateBounds" />
          </mxGeometry>
        </mxCell>
        <mxCell id="AekI4GGU7sX0zfazdIC0-131" value="&lt;span style=&quot;font-family: Arial; font-size: 13px; text-align: left; white-space-collapse: preserve; background-color: rgb(255, 255, 255);&quot;&gt;Urbanización Los Pinos Chalet 3&lt;/span&gt;" style="shape=partialRectangle;html=1;whiteSpace=wrap;connectable=0;strokeColor=inherit;overflow=hidden;fillColor=none;top=0;left=0;bottom=0;right=0;pointerEvents=1;" vertex="1" parent="AekI4GGU7sX0zfazdIC0-125">
          <mxGeometry x="490" width="150" height="40" as="geometry">
            <mxRectangle width="150" height="40" as="alternateBounds" />
          </mxGeometry>
        </mxCell>
        <mxCell id="AekI4GGU7sX0zfazdIC0-132" value="&lt;span style=&quot;font-family: Arial; font-size: 13px; text-align: left; white-space-collapse: preserve; background-color: rgb(255, 255, 255);&quot;&gt;9876543210987654&lt;/span&gt;" style="shape=partialRectangle;html=1;whiteSpace=wrap;connectable=0;strokeColor=inherit;overflow=hidden;fillColor=none;top=0;left=0;bottom=0;right=0;pointerEvents=1;" vertex="1" parent="AekI4GGU7sX0zfazdIC0-125">
          <mxGeometry x="640" width="140" height="40" as="geometry">
            <mxRectangle width="140" height="40" as="alternateBounds" />
          </mxGeometry>
        </mxCell>
        <mxCell id="AekI4GGU7sX0zfazdIC0-133" value="&lt;span style=&quot;font-family: Arial; font-size: 13px; text-align: left; white-space-collapse: preserve; background-color: rgb(255, 255, 255);&quot;&gt;sofia.hernandez@gmail.com&lt;/span&gt;" style="shape=partialRectangle;html=1;whiteSpace=wrap;connectable=0;strokeColor=inherit;overflow=hidden;fillColor=none;top=0;left=0;bottom=0;right=0;pointerEvents=1;" vertex="1" parent="AekI4GGU7sX0zfazdIC0-125">
          <mxGeometry x="780" width="190" height="40" as="geometry">
            <mxRectangle width="190" height="40" as="alternateBounds" />
          </mxGeometry>
        </mxCell>
        <mxCell id="AekI4GGU7sX0zfazdIC0-4" value="" style="shape=table;startSize=0;container=1;collapsible=0;childLayout=tableLayout;" vertex="1" parent="1">
          <mxGeometry x="160" y="170" width="970" height="40" as="geometry" />
        </mxCell>
        <mxCell id="AekI4GGU7sX0zfazdIC0-5" value="" style="shape=tableRow;horizontal=0;startSize=0;swimlaneHead=0;swimlaneBody=0;strokeColor=inherit;top=0;left=0;bottom=0;right=0;collapsible=0;dropTarget=0;fillColor=none;points=[[0,0.5],[1,0.5]];portConstraint=eastwest;" vertex="1" parent="AekI4GGU7sX0zfazdIC0-4">
          <mxGeometry width="970" height="40" as="geometry" />
        </mxCell>
        <mxCell id="AekI4GGU7sX0zfazdIC0-6" value="Cod cliente" style="shape=partialRectangle;html=1;whiteSpace=wrap;connectable=0;strokeColor=inherit;overflow=hidden;fillColor=none;top=0;left=0;bottom=0;right=0;pointerEvents=1;" vertex="1" parent="AekI4GGU7sX0zfazdIC0-5">
          <mxGeometry width="100" height="40" as="geometry">
            <mxRectangle width="100" height="40" as="alternateBounds" />
          </mxGeometry>
        </mxCell>
        <mxCell id="AekI4GGU7sX0zfazdIC0-7" value="Dni" style="shape=partialRectangle;html=1;whiteSpace=wrap;connectable=0;strokeColor=inherit;overflow=hidden;fillColor=none;top=0;left=0;bottom=0;right=0;pointerEvents=1;" vertex="1" parent="AekI4GGU7sX0zfazdIC0-5">
          <mxGeometry x="100" width="100" height="40" as="geometry">
            <mxRectangle width="100" height="40" as="alternateBounds" />
          </mxGeometry>
        </mxCell>
        <mxCell id="AekI4GGU7sX0zfazdIC0-8" value="Nombre" style="shape=partialRectangle;html=1;whiteSpace=wrap;connectable=0;strokeColor=inherit;overflow=hidden;fillColor=none;top=0;left=0;bottom=0;right=0;pointerEvents=1;" vertex="1" parent="AekI4GGU7sX0zfazdIC0-5">
          <mxGeometry x="200" width="90" height="40" as="geometry">
            <mxRectangle width="90" height="40" as="alternateBounds" />
          </mxGeometry>
        </mxCell>
        <mxCell id="AekI4GGU7sX0zfazdIC0-9" value="Apellidos" style="shape=partialRectangle;html=1;whiteSpace=wrap;connectable=0;strokeColor=inherit;overflow=hidden;fillColor=none;top=0;left=0;bottom=0;right=0;pointerEvents=1;" vertex="1" parent="AekI4GGU7sX0zfazdIC0-5">
          <mxGeometry x="290" width="100" height="40" as="geometry">
            <mxRectangle width="100" height="40" as="alternateBounds" />
          </mxGeometry>
        </mxCell>
        <mxCell id="AekI4GGU7sX0zfazdIC0-10" value="Teléfono" style="shape=partialRectangle;html=1;whiteSpace=wrap;connectable=0;strokeColor=inherit;overflow=hidden;fillColor=none;top=0;left=0;bottom=0;right=0;pointerEvents=1;" vertex="1" parent="AekI4GGU7sX0zfazdIC0-5">
          <mxGeometry x="390" width="100" height="40" as="geometry">
            <mxRectangle width="100" height="40" as="alternateBounds" />
          </mxGeometry>
        </mxCell>
        <mxCell id="AekI4GGU7sX0zfazdIC0-11" value="Dirección envío" style="shape=partialRectangle;html=1;whiteSpace=wrap;connectable=0;strokeColor=inherit;overflow=hidden;fillColor=none;top=0;left=0;bottom=0;right=0;pointerEvents=1;" vertex="1" parent="AekI4GGU7sX0zfazdIC0-5">
          <mxGeometry x="490" width="150" height="40" as="geometry">
            <mxRectangle width="150" height="40" as="alternateBounds" />
          </mxGeometry>
        </mxCell>
        <mxCell id="AekI4GGU7sX0zfazdIC0-12" value="Número tarjeta" style="shape=partialRectangle;html=1;whiteSpace=wrap;connectable=0;strokeColor=inherit;overflow=hidden;fillColor=none;top=0;left=0;bottom=0;right=0;pointerEvents=1;" vertex="1" parent="AekI4GGU7sX0zfazdIC0-5">
          <mxGeometry x="640" width="140" height="40" as="geometry">
            <mxRectangle width="140" height="40" as="alternateBounds" />
          </mxGeometry>
        </mxCell>
        <mxCell id="AekI4GGU7sX0zfazdIC0-13" value="Email" style="shape=partialRectangle;html=1;whiteSpace=wrap;connectable=0;strokeColor=inherit;overflow=hidden;fillColor=none;top=0;left=0;bottom=0;right=0;pointerEvents=1;" vertex="1" parent="AekI4GGU7sX0zfazdIC0-5">
          <mxGeometry x="780" width="190" height="40" as="geometry">
            <mxRectangle width="190" height="40" as="alternateBounds" />
          </mxGeometry>
        </mxCell>
        <mxCell id="PSF_NFf5BYGH8DXuZ8QK-9" value="No está en primera forma normal porque existen filas en las que cada celda contiene más de un valor atómico" style="text;html=1;align=center;verticalAlign=middle;whiteSpace=wrap;rounded=0;" vertex="1" parent="1">
          <mxGeometry x="435" y="40" width="420" height="70" as="geometry" />
        </mxCell>
        <mxCell id="PSF_NFf5BYGH8DXuZ8QK-10" value="La solución sería crear una tabla llamada direcciones y otra llamada teléfono (sacando ambas columnas de la tabla clientes) cuya relación con la tabla clientes sería el código de cliente. Así engancha con los datos de esa tabla&amp;nbsp;" style="text;html=1;align=center;verticalAlign=middle;whiteSpace=wrap;rounded=0;" vertex="1" parent="1">
          <mxGeometry x="496.25" y="480" width="297.5" height="70" as="geometry" />
        </mxCell>
        <mxCell id="PSF_NFf5BYGH8DXuZ8QK-13" value="" style="html=1;shadow=0;dashed=0;align=center;verticalAlign=middle;shape=mxgraph.arrows2.arrow;dy=0.6;dx=40;notch=0;direction=south;" vertex="1" parent="1">
          <mxGeometry x="610" y="575" width="70" height="75" as="geometry" />
        </mxCell>
        <mxCell id="PSF_NFf5BYGH8DXuZ8QK-14" value="" style="shape=table;startSize=0;container=1;collapsible=0;childLayout=tableLayout;" vertex="1" parent="1">
          <mxGeometry x="170" y="710" width="970" height="40" as="geometry" />
        </mxCell>
        <mxCell id="PSF_NFf5BYGH8DXuZ8QK-15" value="" style="shape=tableRow;horizontal=0;startSize=0;swimlaneHead=0;swimlaneBody=0;strokeColor=inherit;top=0;left=0;bottom=0;right=0;collapsible=0;dropTarget=0;fillColor=none;points=[[0,0.5],[1,0.5]];portConstraint=eastwest;" vertex="1" parent="PSF_NFf5BYGH8DXuZ8QK-14">
          <mxGeometry width="970" height="40" as="geometry" />
        </mxCell>
        <mxCell id="PSF_NFf5BYGH8DXuZ8QK-16" value="Cliente" style="shape=partialRectangle;html=1;whiteSpace=wrap;connectable=0;strokeColor=inherit;overflow=hidden;fillColor=none;top=0;left=0;bottom=0;right=0;pointerEvents=1;" vertex="1" parent="PSF_NFf5BYGH8DXuZ8QK-15">
          <mxGeometry width="970" height="40" as="geometry">
            <mxRectangle width="970" height="40" as="alternateBounds" />
          </mxGeometry>
        </mxCell>
        <mxCell id="PSF_NFf5BYGH8DXuZ8QK-17" value="" style="shape=table;startSize=0;container=1;collapsible=0;childLayout=tableLayout;" vertex="1" parent="1">
          <mxGeometry x="170" y="790" width="970" height="240" as="geometry" />
        </mxCell>
        <mxCell id="PSF_NFf5BYGH8DXuZ8QK-18" value="" style="shape=tableRow;horizontal=0;startSize=0;swimlaneHead=0;swimlaneBody=0;strokeColor=inherit;top=0;left=0;bottom=0;right=0;collapsible=0;dropTarget=0;fillColor=none;points=[[0,0.5],[1,0.5]];portConstraint=eastwest;" vertex="1" parent="PSF_NFf5BYGH8DXuZ8QK-17">
          <mxGeometry width="970" height="40" as="geometry" />
        </mxCell>
        <mxCell id="PSF_NFf5BYGH8DXuZ8QK-19" value="C001" style="shape=partialRectangle;html=1;whiteSpace=wrap;connectable=0;strokeColor=inherit;overflow=hidden;fillColor=none;top=0;left=0;bottom=0;right=0;pointerEvents=1;" vertex="1" parent="PSF_NFf5BYGH8DXuZ8QK-18">
          <mxGeometry width="100" height="40" as="geometry">
            <mxRectangle width="100" height="40" as="alternateBounds" />
          </mxGeometry>
        </mxCell>
        <mxCell id="PSF_NFf5BYGH8DXuZ8QK-20" value="24598715P" style="shape=partialRectangle;html=1;whiteSpace=wrap;connectable=0;strokeColor=inherit;overflow=hidden;fillColor=none;top=0;left=0;bottom=0;right=0;pointerEvents=1;" vertex="1" parent="PSF_NFf5BYGH8DXuZ8QK-18">
          <mxGeometry x="100" width="100" height="40" as="geometry">
            <mxRectangle width="100" height="40" as="alternateBounds" />
          </mxGeometry>
        </mxCell>
        <mxCell id="PSF_NFf5BYGH8DXuZ8QK-21" value="Juan" style="shape=partialRectangle;html=1;whiteSpace=wrap;connectable=0;strokeColor=inherit;overflow=hidden;fillColor=none;top=0;left=0;bottom=0;right=0;pointerEvents=1;" vertex="1" parent="PSF_NFf5BYGH8DXuZ8QK-18">
          <mxGeometry x="200" width="90" height="40" as="geometry">
            <mxRectangle width="90" height="40" as="alternateBounds" />
          </mxGeometry>
        </mxCell>
        <mxCell id="PSF_NFf5BYGH8DXuZ8QK-22" value="Pérez" style="shape=partialRectangle;html=1;whiteSpace=wrap;connectable=0;strokeColor=inherit;overflow=hidden;fillColor=none;top=0;left=0;bottom=0;right=0;pointerEvents=1;" vertex="1" parent="PSF_NFf5BYGH8DXuZ8QK-18">
          <mxGeometry x="290" width="100" height="40" as="geometry">
            <mxRectangle width="100" height="40" as="alternateBounds" />
          </mxGeometry>
        </mxCell>
        <mxCell id="PSF_NFf5BYGH8DXuZ8QK-23" value="" style="shape=partialRectangle;html=1;whiteSpace=wrap;connectable=0;strokeColor=inherit;overflow=hidden;fillColor=none;top=0;left=0;bottom=0;right=0;pointerEvents=1;" vertex="1" parent="PSF_NFf5BYGH8DXuZ8QK-18">
          <mxGeometry x="390" width="100" height="40" as="geometry">
            <mxRectangle width="100" height="40" as="alternateBounds" />
          </mxGeometry>
        </mxCell>
        <mxCell id="PSF_NFf5BYGH8DXuZ8QK-24" value="" style="shape=partialRectangle;html=1;whiteSpace=wrap;connectable=0;strokeColor=inherit;overflow=hidden;fillColor=none;top=0;left=0;bottom=0;right=0;pointerEvents=1;" vertex="1" parent="PSF_NFf5BYGH8DXuZ8QK-18">
          <mxGeometry x="490" width="150" height="40" as="geometry">
            <mxRectangle width="150" height="40" as="alternateBounds" />
          </mxGeometry>
        </mxCell>
        <mxCell id="PSF_NFf5BYGH8DXuZ8QK-25" value="&lt;span style=&quot;font-family: Arial; font-size: 13px; text-align: left; white-space-collapse: preserve; background-color: rgb(255, 255, 255);&quot;&gt;1234567891234567&lt;/span&gt;" style="shape=partialRectangle;html=1;whiteSpace=wrap;connectable=0;strokeColor=inherit;overflow=hidden;fillColor=none;top=0;left=0;bottom=0;right=0;pointerEvents=1;" vertex="1" parent="PSF_NFf5BYGH8DXuZ8QK-18">
          <mxGeometry x="640" width="140" height="40" as="geometry">
            <mxRectangle width="140" height="40" as="alternateBounds" />
          </mxGeometry>
        </mxCell>
        <mxCell id="PSF_NFf5BYGH8DXuZ8QK-26" value="&lt;span style=&quot;font-family: Arial; font-size: 13px; text-align: left; white-space-collapse: preserve; background-color: rgb(255, 255, 255);&quot;&gt;juanperez@gmail.com&lt;/span&gt;" style="shape=partialRectangle;html=1;whiteSpace=wrap;connectable=0;strokeColor=inherit;overflow=hidden;fillColor=none;top=0;left=0;bottom=0;right=0;pointerEvents=1;" vertex="1" parent="PSF_NFf5BYGH8DXuZ8QK-18">
          <mxGeometry x="780" width="190" height="40" as="geometry">
            <mxRectangle width="190" height="40" as="alternateBounds" />
          </mxGeometry>
        </mxCell>
        <mxCell id="PSF_NFf5BYGH8DXuZ8QK-27" value="" style="shape=tableRow;horizontal=0;startSize=0;swimlaneHead=0;swimlaneBody=0;strokeColor=inherit;top=0;left=0;bottom=0;right=0;collapsible=0;dropTarget=0;fillColor=none;points=[[0,0.5],[1,0.5]];portConstraint=eastwest;" vertex="1" parent="PSF_NFf5BYGH8DXuZ8QK-17">
          <mxGeometry y="40" width="970" height="40" as="geometry" />
        </mxCell>
        <mxCell id="PSF_NFf5BYGH8DXuZ8QK-28" value="C002" style="shape=partialRectangle;html=1;whiteSpace=wrap;connectable=0;strokeColor=inherit;overflow=hidden;fillColor=none;top=0;left=0;bottom=0;right=0;pointerEvents=1;" vertex="1" parent="PSF_NFf5BYGH8DXuZ8QK-27">
          <mxGeometry width="100" height="40" as="geometry">
            <mxRectangle width="100" height="40" as="alternateBounds" />
          </mxGeometry>
        </mxCell>
        <mxCell id="PSF_NFf5BYGH8DXuZ8QK-29" value="45267455C" style="shape=partialRectangle;html=1;whiteSpace=wrap;connectable=0;strokeColor=inherit;overflow=hidden;fillColor=none;top=0;left=0;bottom=0;right=0;pointerEvents=1;" vertex="1" parent="PSF_NFf5BYGH8DXuZ8QK-27">
          <mxGeometry x="100" width="100" height="40" as="geometry">
            <mxRectangle width="100" height="40" as="alternateBounds" />
          </mxGeometry>
        </mxCell>
        <mxCell id="PSF_NFf5BYGH8DXuZ8QK-30" value="Ana" style="shape=partialRectangle;html=1;whiteSpace=wrap;connectable=0;strokeColor=inherit;overflow=hidden;fillColor=none;top=0;left=0;bottom=0;right=0;pointerEvents=1;" vertex="1" parent="PSF_NFf5BYGH8DXuZ8QK-27">
          <mxGeometry x="200" width="90" height="40" as="geometry">
            <mxRectangle width="90" height="40" as="alternateBounds" />
          </mxGeometry>
        </mxCell>
        <mxCell id="PSF_NFf5BYGH8DXuZ8QK-31" value="García" style="shape=partialRectangle;html=1;whiteSpace=wrap;connectable=0;strokeColor=inherit;overflow=hidden;fillColor=none;top=0;left=0;bottom=0;right=0;pointerEvents=1;" vertex="1" parent="PSF_NFf5BYGH8DXuZ8QK-27">
          <mxGeometry x="290" width="100" height="40" as="geometry">
            <mxRectangle width="100" height="40" as="alternateBounds" />
          </mxGeometry>
        </mxCell>
        <mxCell id="PSF_NFf5BYGH8DXuZ8QK-32" value="" style="shape=partialRectangle;html=1;whiteSpace=wrap;connectable=0;strokeColor=inherit;overflow=hidden;fillColor=none;top=0;left=0;bottom=0;right=0;pointerEvents=1;" vertex="1" parent="PSF_NFf5BYGH8DXuZ8QK-27">
          <mxGeometry x="390" width="100" height="40" as="geometry">
            <mxRectangle width="100" height="40" as="alternateBounds" />
          </mxGeometry>
        </mxCell>
        <mxCell id="PSF_NFf5BYGH8DXuZ8QK-33" value="" style="shape=partialRectangle;html=1;whiteSpace=wrap;connectable=0;strokeColor=inherit;overflow=hidden;fillColor=none;top=0;left=0;bottom=0;right=0;pointerEvents=1;" vertex="1" parent="PSF_NFf5BYGH8DXuZ8QK-27">
          <mxGeometry x="490" width="150" height="40" as="geometry">
            <mxRectangle width="150" height="40" as="alternateBounds" />
          </mxGeometry>
        </mxCell>
        <mxCell id="PSF_NFf5BYGH8DXuZ8QK-34" value="&#xa;&lt;span style=&quot;color: rgb(0, 0, 0); font-family: Arial; font-size: 13px; font-style: normal; font-variant-ligatures: normal; font-variant-caps: normal; font-weight: 400; letter-spacing: normal; orphans: 2; text-align: left; text-indent: 0px; text-transform: none; widows: 2; word-spacing: 0px; -webkit-text-stroke-width: 0px; white-space: pre-wrap; background-color: rgb(255, 255, 255); text-decoration-thickness: initial; text-decoration-style: initial; text-decoration-color: initial; display: inline !important; float: none;&quot;&gt;9876543210987654&lt;/span&gt;&#xa;&#xa;" style="shape=partialRectangle;html=1;whiteSpace=wrap;connectable=0;strokeColor=inherit;overflow=hidden;fillColor=none;top=0;left=0;bottom=0;right=0;pointerEvents=1;" vertex="1" parent="PSF_NFf5BYGH8DXuZ8QK-27">
          <mxGeometry x="640" width="140" height="40" as="geometry">
            <mxRectangle width="140" height="40" as="alternateBounds" />
          </mxGeometry>
        </mxCell>
        <mxCell id="PSF_NFf5BYGH8DXuZ8QK-35" value="&lt;span style=&quot;font-family: Arial; font-size: 13px; text-align: left; white-space-collapse: preserve; background-color: rgb(255, 255, 255);&quot;&gt;anagarcia@gmail.com&lt;/span&gt;" style="shape=partialRectangle;html=1;whiteSpace=wrap;connectable=0;strokeColor=inherit;overflow=hidden;fillColor=none;top=0;left=0;bottom=0;right=0;pointerEvents=1;" vertex="1" parent="PSF_NFf5BYGH8DXuZ8QK-27">
          <mxGeometry x="780" width="190" height="40" as="geometry">
            <mxRectangle width="190" height="40" as="alternateBounds" />
          </mxGeometry>
        </mxCell>
        <mxCell id="PSF_NFf5BYGH8DXuZ8QK-36" value="" style="shape=tableRow;horizontal=0;startSize=0;swimlaneHead=0;swimlaneBody=0;strokeColor=inherit;top=0;left=0;bottom=0;right=0;collapsible=0;dropTarget=0;fillColor=none;points=[[0,0.5],[1,0.5]];portConstraint=eastwest;" vertex="1" parent="PSF_NFf5BYGH8DXuZ8QK-17">
          <mxGeometry y="80" width="970" height="40" as="geometry" />
        </mxCell>
        <mxCell id="PSF_NFf5BYGH8DXuZ8QK-37" value="C003" style="shape=partialRectangle;html=1;whiteSpace=wrap;connectable=0;strokeColor=inherit;overflow=hidden;fillColor=none;top=0;left=0;bottom=0;right=0;pointerEvents=1;" vertex="1" parent="PSF_NFf5BYGH8DXuZ8QK-36">
          <mxGeometry width="100" height="40" as="geometry">
            <mxRectangle width="100" height="40" as="alternateBounds" />
          </mxGeometry>
        </mxCell>
        <mxCell id="PSF_NFf5BYGH8DXuZ8QK-38" value="33482058R" style="shape=partialRectangle;html=1;whiteSpace=wrap;connectable=0;strokeColor=inherit;overflow=hidden;fillColor=none;top=0;left=0;bottom=0;right=0;pointerEvents=1;" vertex="1" parent="PSF_NFf5BYGH8DXuZ8QK-36">
          <mxGeometry x="100" width="100" height="40" as="geometry">
            <mxRectangle width="100" height="40" as="alternateBounds" />
          </mxGeometry>
        </mxCell>
        <mxCell id="PSF_NFf5BYGH8DXuZ8QK-39" value="Pedro" style="shape=partialRectangle;html=1;whiteSpace=wrap;connectable=0;strokeColor=inherit;overflow=hidden;fillColor=none;top=0;left=0;bottom=0;right=0;pointerEvents=1;" vertex="1" parent="PSF_NFf5BYGH8DXuZ8QK-36">
          <mxGeometry x="200" width="90" height="40" as="geometry">
            <mxRectangle width="90" height="40" as="alternateBounds" />
          </mxGeometry>
        </mxCell>
        <mxCell id="PSF_NFf5BYGH8DXuZ8QK-40" value="López" style="shape=partialRectangle;html=1;whiteSpace=wrap;connectable=0;strokeColor=inherit;overflow=hidden;fillColor=none;top=0;left=0;bottom=0;right=0;pointerEvents=1;" vertex="1" parent="PSF_NFf5BYGH8DXuZ8QK-36">
          <mxGeometry x="290" width="100" height="40" as="geometry">
            <mxRectangle width="100" height="40" as="alternateBounds" />
          </mxGeometry>
        </mxCell>
        <mxCell id="PSF_NFf5BYGH8DXuZ8QK-41" value="" style="shape=partialRectangle;html=1;whiteSpace=wrap;connectable=0;strokeColor=inherit;overflow=hidden;fillColor=none;top=0;left=0;bottom=0;right=0;pointerEvents=1;" vertex="1" parent="PSF_NFf5BYGH8DXuZ8QK-36">
          <mxGeometry x="390" width="100" height="40" as="geometry">
            <mxRectangle width="100" height="40" as="alternateBounds" />
          </mxGeometry>
        </mxCell>
        <mxCell id="PSF_NFf5BYGH8DXuZ8QK-42" value="" style="shape=partialRectangle;html=1;whiteSpace=wrap;connectable=0;strokeColor=inherit;overflow=hidden;fillColor=none;top=0;left=0;bottom=0;right=0;pointerEvents=1;" vertex="1" parent="PSF_NFf5BYGH8DXuZ8QK-36">
          <mxGeometry x="490" width="150" height="40" as="geometry">
            <mxRectangle width="150" height="40" as="alternateBounds" />
          </mxGeometry>
        </mxCell>
        <mxCell id="PSF_NFf5BYGH8DXuZ8QK-43" value="&lt;span style=&quot;font-family: Arial; font-size: 13px; text-align: left; white-space-collapse: preserve; background-color: rgb(255, 255, 255);&quot;&gt;1234567890123456&lt;/span&gt;" style="shape=partialRectangle;html=1;whiteSpace=wrap;connectable=0;strokeColor=inherit;overflow=hidden;fillColor=none;top=0;left=0;bottom=0;right=0;pointerEvents=1;" vertex="1" parent="PSF_NFf5BYGH8DXuZ8QK-36">
          <mxGeometry x="640" width="140" height="40" as="geometry">
            <mxRectangle width="140" height="40" as="alternateBounds" />
          </mxGeometry>
        </mxCell>
        <mxCell id="PSF_NFf5BYGH8DXuZ8QK-44" value="&lt;span style=&quot;font-family: Arial; font-size: 13px; text-align: left; white-space-collapse: preserve; background-color: rgb(255, 255, 255);&quot;&gt;pedroLop@outlook.com&lt;/span&gt;" style="shape=partialRectangle;html=1;whiteSpace=wrap;connectable=0;strokeColor=inherit;overflow=hidden;fillColor=none;top=0;left=0;bottom=0;right=0;pointerEvents=1;" vertex="1" parent="PSF_NFf5BYGH8DXuZ8QK-36">
          <mxGeometry x="780" width="190" height="40" as="geometry">
            <mxRectangle width="190" height="40" as="alternateBounds" />
          </mxGeometry>
        </mxCell>
        <mxCell id="PSF_NFf5BYGH8DXuZ8QK-45" value="" style="shape=tableRow;horizontal=0;startSize=0;swimlaneHead=0;swimlaneBody=0;strokeColor=inherit;top=0;left=0;bottom=0;right=0;collapsible=0;dropTarget=0;fillColor=none;points=[[0,0.5],[1,0.5]];portConstraint=eastwest;" vertex="1" parent="PSF_NFf5BYGH8DXuZ8QK-17">
          <mxGeometry y="120" width="970" height="40" as="geometry" />
        </mxCell>
        <mxCell id="PSF_NFf5BYGH8DXuZ8QK-46" value="C004" style="shape=partialRectangle;html=1;whiteSpace=wrap;connectable=0;strokeColor=inherit;overflow=hidden;fillColor=none;top=0;left=0;bottom=0;right=0;pointerEvents=1;" vertex="1" parent="PSF_NFf5BYGH8DXuZ8QK-45">
          <mxGeometry width="100" height="40" as="geometry">
            <mxRectangle width="100" height="40" as="alternateBounds" />
          </mxGeometry>
        </mxCell>
        <mxCell id="PSF_NFf5BYGH8DXuZ8QK-47" value="37990706V" style="shape=partialRectangle;html=1;whiteSpace=wrap;connectable=0;strokeColor=inherit;overflow=hidden;fillColor=none;top=0;left=0;bottom=0;right=0;pointerEvents=1;" vertex="1" parent="PSF_NFf5BYGH8DXuZ8QK-45">
          <mxGeometry x="100" width="100" height="40" as="geometry">
            <mxRectangle width="100" height="40" as="alternateBounds" />
          </mxGeometry>
        </mxCell>
        <mxCell id="PSF_NFf5BYGH8DXuZ8QK-48" value="María" style="shape=partialRectangle;html=1;whiteSpace=wrap;connectable=0;strokeColor=inherit;overflow=hidden;fillColor=none;top=0;left=0;bottom=0;right=0;pointerEvents=1;" vertex="1" parent="PSF_NFf5BYGH8DXuZ8QK-45">
          <mxGeometry x="200" width="90" height="40" as="geometry">
            <mxRectangle width="90" height="40" as="alternateBounds" />
          </mxGeometry>
        </mxCell>
        <mxCell id="PSF_NFf5BYGH8DXuZ8QK-49" value="Sánchez" style="shape=partialRectangle;html=1;whiteSpace=wrap;connectable=0;strokeColor=inherit;overflow=hidden;fillColor=none;top=0;left=0;bottom=0;right=0;pointerEvents=1;" vertex="1" parent="PSF_NFf5BYGH8DXuZ8QK-45">
          <mxGeometry x="290" width="100" height="40" as="geometry">
            <mxRectangle width="100" height="40" as="alternateBounds" />
          </mxGeometry>
        </mxCell>
        <mxCell id="PSF_NFf5BYGH8DXuZ8QK-50" value="" style="shape=partialRectangle;html=1;whiteSpace=wrap;connectable=0;strokeColor=inherit;overflow=hidden;fillColor=none;top=0;left=0;bottom=0;right=0;pointerEvents=1;" vertex="1" parent="PSF_NFf5BYGH8DXuZ8QK-45">
          <mxGeometry x="390" width="100" height="40" as="geometry">
            <mxRectangle width="100" height="40" as="alternateBounds" />
          </mxGeometry>
        </mxCell>
        <mxCell id="PSF_NFf5BYGH8DXuZ8QK-51" value="" style="shape=partialRectangle;html=1;whiteSpace=wrap;connectable=0;strokeColor=inherit;overflow=hidden;fillColor=none;top=0;left=0;bottom=0;right=0;pointerEvents=1;" vertex="1" parent="PSF_NFf5BYGH8DXuZ8QK-45">
          <mxGeometry x="490" width="150" height="40" as="geometry">
            <mxRectangle width="150" height="40" as="alternateBounds" />
          </mxGeometry>
        </mxCell>
        <mxCell id="PSF_NFf5BYGH8DXuZ8QK-52" value="&#xa;&lt;span style=&quot;color: rgb(0, 0, 0); font-family: Arial; font-size: 13px; font-style: normal; font-variant-ligatures: normal; font-variant-caps: normal; font-weight: 400; letter-spacing: normal; orphans: 2; text-align: left; text-indent: 0px; text-transform: none; widows: 2; word-spacing: 0px; -webkit-text-stroke-width: 0px; white-space: pre-wrap; background-color: rgb(255, 255, 255); text-decoration-thickness: initial; text-decoration-style: initial; text-decoration-color: initial; display: inline !important; float: none;&quot;&gt;8765432109876543&lt;/span&gt;&#xa;&#xa;" style="shape=partialRectangle;html=1;whiteSpace=wrap;connectable=0;strokeColor=inherit;overflow=hidden;fillColor=none;top=0;left=0;bottom=0;right=0;pointerEvents=1;" vertex="1" parent="PSF_NFf5BYGH8DXuZ8QK-45">
          <mxGeometry x="640" width="140" height="40" as="geometry">
            <mxRectangle width="140" height="40" as="alternateBounds" />
          </mxGeometry>
        </mxCell>
        <mxCell id="PSF_NFf5BYGH8DXuZ8QK-53" value="&lt;span style=&quot;font-family: Arial; font-size: 13px; text-align: left; white-space-collapse: preserve; background-color: rgb(255, 255, 255);&quot;&gt;Msanchez@gmail.com&lt;/span&gt;" style="shape=partialRectangle;html=1;whiteSpace=wrap;connectable=0;strokeColor=inherit;overflow=hidden;fillColor=none;top=0;left=0;bottom=0;right=0;pointerEvents=1;" vertex="1" parent="PSF_NFf5BYGH8DXuZ8QK-45">
          <mxGeometry x="780" width="190" height="40" as="geometry">
            <mxRectangle width="190" height="40" as="alternateBounds" />
          </mxGeometry>
        </mxCell>
        <mxCell id="PSF_NFf5BYGH8DXuZ8QK-54" value="" style="shape=tableRow;horizontal=0;startSize=0;swimlaneHead=0;swimlaneBody=0;strokeColor=inherit;top=0;left=0;bottom=0;right=0;collapsible=0;dropTarget=0;fillColor=none;points=[[0,0.5],[1,0.5]];portConstraint=eastwest;" vertex="1" parent="PSF_NFf5BYGH8DXuZ8QK-17">
          <mxGeometry y="160" width="970" height="40" as="geometry" />
        </mxCell>
        <mxCell id="PSF_NFf5BYGH8DXuZ8QK-55" value="C005" style="shape=partialRectangle;html=1;whiteSpace=wrap;connectable=0;strokeColor=inherit;overflow=hidden;fillColor=none;top=0;left=0;bottom=0;right=0;pointerEvents=1;" vertex="1" parent="PSF_NFf5BYGH8DXuZ8QK-54">
          <mxGeometry width="100" height="40" as="geometry">
            <mxRectangle width="100" height="40" as="alternateBounds" />
          </mxGeometry>
        </mxCell>
        <mxCell id="PSF_NFf5BYGH8DXuZ8QK-56" value="42108667Q" style="shape=partialRectangle;html=1;whiteSpace=wrap;connectable=0;strokeColor=inherit;overflow=hidden;fillColor=none;top=0;left=0;bottom=0;right=0;pointerEvents=1;" vertex="1" parent="PSF_NFf5BYGH8DXuZ8QK-54">
          <mxGeometry x="100" width="100" height="40" as="geometry">
            <mxRectangle width="100" height="40" as="alternateBounds" />
          </mxGeometry>
        </mxCell>
        <mxCell id="PSF_NFf5BYGH8DXuZ8QK-57" value="Luis" style="shape=partialRectangle;html=1;whiteSpace=wrap;connectable=0;strokeColor=inherit;overflow=hidden;fillColor=none;top=0;left=0;bottom=0;right=0;pointerEvents=1;" vertex="1" parent="PSF_NFf5BYGH8DXuZ8QK-54">
          <mxGeometry x="200" width="90" height="40" as="geometry">
            <mxRectangle width="90" height="40" as="alternateBounds" />
          </mxGeometry>
        </mxCell>
        <mxCell id="PSF_NFf5BYGH8DXuZ8QK-58" value="Martínez" style="shape=partialRectangle;html=1;whiteSpace=wrap;connectable=0;strokeColor=inherit;overflow=hidden;fillColor=none;top=0;left=0;bottom=0;right=0;pointerEvents=1;" vertex="1" parent="PSF_NFf5BYGH8DXuZ8QK-54">
          <mxGeometry x="290" width="100" height="40" as="geometry">
            <mxRectangle width="100" height="40" as="alternateBounds" />
          </mxGeometry>
        </mxCell>
        <mxCell id="PSF_NFf5BYGH8DXuZ8QK-59" value="" style="shape=partialRectangle;html=1;whiteSpace=wrap;connectable=0;strokeColor=inherit;overflow=hidden;fillColor=none;top=0;left=0;bottom=0;right=0;pointerEvents=1;" vertex="1" parent="PSF_NFf5BYGH8DXuZ8QK-54">
          <mxGeometry x="390" width="100" height="40" as="geometry">
            <mxRectangle width="100" height="40" as="alternateBounds" />
          </mxGeometry>
        </mxCell>
        <mxCell id="PSF_NFf5BYGH8DXuZ8QK-60" value="" style="shape=partialRectangle;html=1;whiteSpace=wrap;connectable=0;strokeColor=inherit;overflow=hidden;fillColor=none;top=0;left=0;bottom=0;right=0;pointerEvents=1;" vertex="1" parent="PSF_NFf5BYGH8DXuZ8QK-54">
          <mxGeometry x="490" width="150" height="40" as="geometry">
            <mxRectangle width="150" height="40" as="alternateBounds" />
          </mxGeometry>
        </mxCell>
        <mxCell id="PSF_NFf5BYGH8DXuZ8QK-61" value="&lt;span style=&quot;font-family: Arial; font-size: 13px; text-align: left; white-space-collapse: preserve; background-color: rgb(255, 255, 255);&quot;&gt;1234567890123456&lt;/span&gt;" style="shape=partialRectangle;html=1;whiteSpace=wrap;connectable=0;strokeColor=inherit;overflow=hidden;fillColor=none;top=0;left=0;bottom=0;right=0;pointerEvents=1;" vertex="1" parent="PSF_NFf5BYGH8DXuZ8QK-54">
          <mxGeometry x="640" width="140" height="40" as="geometry">
            <mxRectangle width="140" height="40" as="alternateBounds" />
          </mxGeometry>
        </mxCell>
        <mxCell id="PSF_NFf5BYGH8DXuZ8QK-62" value="&lt;span style=&quot;font-family: Arial; font-size: 13px; text-align: left; white-space-collapse: preserve; background-color: rgb(255, 255, 255);&quot;&gt;luma@outlook.com&lt;/span&gt;" style="shape=partialRectangle;html=1;whiteSpace=wrap;connectable=0;strokeColor=inherit;overflow=hidden;fillColor=none;top=0;left=0;bottom=0;right=0;pointerEvents=1;" vertex="1" parent="PSF_NFf5BYGH8DXuZ8QK-54">
          <mxGeometry x="780" width="190" height="40" as="geometry">
            <mxRectangle width="190" height="40" as="alternateBounds" />
          </mxGeometry>
        </mxCell>
        <mxCell id="PSF_NFf5BYGH8DXuZ8QK-63" value="" style="shape=tableRow;horizontal=0;startSize=0;swimlaneHead=0;swimlaneBody=0;strokeColor=inherit;top=0;left=0;bottom=0;right=0;collapsible=0;dropTarget=0;fillColor=none;points=[[0,0.5],[1,0.5]];portConstraint=eastwest;" vertex="1" parent="PSF_NFf5BYGH8DXuZ8QK-17">
          <mxGeometry y="200" width="970" height="40" as="geometry" />
        </mxCell>
        <mxCell id="PSF_NFf5BYGH8DXuZ8QK-64" value="C006" style="shape=partialRectangle;html=1;whiteSpace=wrap;connectable=0;strokeColor=inherit;overflow=hidden;fillColor=none;top=0;left=0;bottom=0;right=0;pointerEvents=1;" vertex="1" parent="PSF_NFf5BYGH8DXuZ8QK-63">
          <mxGeometry width="100" height="40" as="geometry">
            <mxRectangle width="100" height="40" as="alternateBounds" />
          </mxGeometry>
        </mxCell>
        <mxCell id="PSF_NFf5BYGH8DXuZ8QK-65" value="30792482F" style="shape=partialRectangle;html=1;whiteSpace=wrap;connectable=0;strokeColor=inherit;overflow=hidden;fillColor=none;top=0;left=0;bottom=0;right=0;pointerEvents=1;" vertex="1" parent="PSF_NFf5BYGH8DXuZ8QK-63">
          <mxGeometry x="100" width="100" height="40" as="geometry">
            <mxRectangle width="100" height="40" as="alternateBounds" />
          </mxGeometry>
        </mxCell>
        <mxCell id="PSF_NFf5BYGH8DXuZ8QK-66" value="Sofía" style="shape=partialRectangle;html=1;whiteSpace=wrap;connectable=0;strokeColor=inherit;overflow=hidden;fillColor=none;top=0;left=0;bottom=0;right=0;pointerEvents=1;" vertex="1" parent="PSF_NFf5BYGH8DXuZ8QK-63">
          <mxGeometry x="200" width="90" height="40" as="geometry">
            <mxRectangle width="90" height="40" as="alternateBounds" />
          </mxGeometry>
        </mxCell>
        <mxCell id="PSF_NFf5BYGH8DXuZ8QK-67" value="Hernandez" style="shape=partialRectangle;html=1;whiteSpace=wrap;connectable=0;strokeColor=inherit;overflow=hidden;fillColor=none;top=0;left=0;bottom=0;right=0;pointerEvents=1;" vertex="1" parent="PSF_NFf5BYGH8DXuZ8QK-63">
          <mxGeometry x="290" width="100" height="40" as="geometry">
            <mxRectangle width="100" height="40" as="alternateBounds" />
          </mxGeometry>
        </mxCell>
        <mxCell id="PSF_NFf5BYGH8DXuZ8QK-68" value="" style="shape=partialRectangle;html=1;whiteSpace=wrap;connectable=0;strokeColor=inherit;overflow=hidden;fillColor=none;top=0;left=0;bottom=0;right=0;pointerEvents=1;" vertex="1" parent="PSF_NFf5BYGH8DXuZ8QK-63">
          <mxGeometry x="390" width="100" height="40" as="geometry">
            <mxRectangle width="100" height="40" as="alternateBounds" />
          </mxGeometry>
        </mxCell>
        <mxCell id="PSF_NFf5BYGH8DXuZ8QK-69" value="" style="shape=partialRectangle;html=1;whiteSpace=wrap;connectable=0;strokeColor=inherit;overflow=hidden;fillColor=none;top=0;left=0;bottom=0;right=0;pointerEvents=1;" vertex="1" parent="PSF_NFf5BYGH8DXuZ8QK-63">
          <mxGeometry x="490" width="150" height="40" as="geometry">
            <mxRectangle width="150" height="40" as="alternateBounds" />
          </mxGeometry>
        </mxCell>
        <mxCell id="PSF_NFf5BYGH8DXuZ8QK-70" value="&lt;span style=&quot;font-family: Arial; font-size: 13px; text-align: left; white-space-collapse: preserve; background-color: rgb(255, 255, 255);&quot;&gt;9876543210987654&lt;/span&gt;" style="shape=partialRectangle;html=1;whiteSpace=wrap;connectable=0;strokeColor=inherit;overflow=hidden;fillColor=none;top=0;left=0;bottom=0;right=0;pointerEvents=1;" vertex="1" parent="PSF_NFf5BYGH8DXuZ8QK-63">
          <mxGeometry x="640" width="140" height="40" as="geometry">
            <mxRectangle width="140" height="40" as="alternateBounds" />
          </mxGeometry>
        </mxCell>
        <mxCell id="PSF_NFf5BYGH8DXuZ8QK-71" value="&lt;span style=&quot;font-family: Arial; font-size: 13px; text-align: left; white-space-collapse: preserve; background-color: rgb(255, 255, 255);&quot;&gt;sofia.hernandez@gmail.com&lt;/span&gt;" style="shape=partialRectangle;html=1;whiteSpace=wrap;connectable=0;strokeColor=inherit;overflow=hidden;fillColor=none;top=0;left=0;bottom=0;right=0;pointerEvents=1;" vertex="1" parent="PSF_NFf5BYGH8DXuZ8QK-63">
          <mxGeometry x="780" width="190" height="40" as="geometry">
            <mxRectangle width="190" height="40" as="alternateBounds" />
          </mxGeometry>
        </mxCell>
        <mxCell id="PSF_NFf5BYGH8DXuZ8QK-72" value="" style="shape=table;startSize=0;container=1;collapsible=0;childLayout=tableLayout;" vertex="1" parent="1">
          <mxGeometry x="170" y="750" width="970" height="40" as="geometry" />
        </mxCell>
        <mxCell id="PSF_NFf5BYGH8DXuZ8QK-73" value="" style="shape=tableRow;horizontal=0;startSize=0;swimlaneHead=0;swimlaneBody=0;strokeColor=inherit;top=0;left=0;bottom=0;right=0;collapsible=0;dropTarget=0;fillColor=none;points=[[0,0.5],[1,0.5]];portConstraint=eastwest;" vertex="1" parent="PSF_NFf5BYGH8DXuZ8QK-72">
          <mxGeometry width="970" height="40" as="geometry" />
        </mxCell>
        <mxCell id="PSF_NFf5BYGH8DXuZ8QK-74" value="Cod cliente" style="shape=partialRectangle;html=1;whiteSpace=wrap;connectable=0;strokeColor=inherit;overflow=hidden;fillColor=none;top=0;left=0;bottom=0;right=0;pointerEvents=1;" vertex="1" parent="PSF_NFf5BYGH8DXuZ8QK-73">
          <mxGeometry width="100" height="40" as="geometry">
            <mxRectangle width="100" height="40" as="alternateBounds" />
          </mxGeometry>
        </mxCell>
        <mxCell id="PSF_NFf5BYGH8DXuZ8QK-75" value="Dni" style="shape=partialRectangle;html=1;whiteSpace=wrap;connectable=0;strokeColor=inherit;overflow=hidden;fillColor=none;top=0;left=0;bottom=0;right=0;pointerEvents=1;" vertex="1" parent="PSF_NFf5BYGH8DXuZ8QK-73">
          <mxGeometry x="100" width="100" height="40" as="geometry">
            <mxRectangle width="100" height="40" as="alternateBounds" />
          </mxGeometry>
        </mxCell>
        <mxCell id="PSF_NFf5BYGH8DXuZ8QK-76" value="Nombre" style="shape=partialRectangle;html=1;whiteSpace=wrap;connectable=0;strokeColor=inherit;overflow=hidden;fillColor=none;top=0;left=0;bottom=0;right=0;pointerEvents=1;" vertex="1" parent="PSF_NFf5BYGH8DXuZ8QK-73">
          <mxGeometry x="200" width="90" height="40" as="geometry">
            <mxRectangle width="90" height="40" as="alternateBounds" />
          </mxGeometry>
        </mxCell>
        <mxCell id="PSF_NFf5BYGH8DXuZ8QK-77" value="Apellidos" style="shape=partialRectangle;html=1;whiteSpace=wrap;connectable=0;strokeColor=inherit;overflow=hidden;fillColor=none;top=0;left=0;bottom=0;right=0;pointerEvents=1;" vertex="1" parent="PSF_NFf5BYGH8DXuZ8QK-73">
          <mxGeometry x="290" width="100" height="40" as="geometry">
            <mxRectangle width="100" height="40" as="alternateBounds" />
          </mxGeometry>
        </mxCell>
        <mxCell id="PSF_NFf5BYGH8DXuZ8QK-78" value="" style="shape=partialRectangle;html=1;whiteSpace=wrap;connectable=0;strokeColor=inherit;overflow=hidden;fillColor=none;top=0;left=0;bottom=0;right=0;pointerEvents=1;" vertex="1" parent="PSF_NFf5BYGH8DXuZ8QK-73">
          <mxGeometry x="390" width="100" height="40" as="geometry">
            <mxRectangle width="100" height="40" as="alternateBounds" />
          </mxGeometry>
        </mxCell>
        <mxCell id="PSF_NFf5BYGH8DXuZ8QK-79" value="" style="shape=partialRectangle;html=1;whiteSpace=wrap;connectable=0;strokeColor=inherit;overflow=hidden;fillColor=none;top=0;left=0;bottom=0;right=0;pointerEvents=1;" vertex="1" parent="PSF_NFf5BYGH8DXuZ8QK-73">
          <mxGeometry x="490" width="150" height="40" as="geometry">
            <mxRectangle width="150" height="40" as="alternateBounds" />
          </mxGeometry>
        </mxCell>
        <mxCell id="PSF_NFf5BYGH8DXuZ8QK-80" value="Número tarjeta" style="shape=partialRectangle;html=1;whiteSpace=wrap;connectable=0;strokeColor=inherit;overflow=hidden;fillColor=none;top=0;left=0;bottom=0;right=0;pointerEvents=1;" vertex="1" parent="PSF_NFf5BYGH8DXuZ8QK-73">
          <mxGeometry x="640" width="140" height="40" as="geometry">
            <mxRectangle width="140" height="40" as="alternateBounds" />
          </mxGeometry>
        </mxCell>
        <mxCell id="PSF_NFf5BYGH8DXuZ8QK-81" value="Email" style="shape=partialRectangle;html=1;whiteSpace=wrap;connectable=0;strokeColor=inherit;overflow=hidden;fillColor=none;top=0;left=0;bottom=0;right=0;pointerEvents=1;" vertex="1" parent="PSF_NFf5BYGH8DXuZ8QK-73">
          <mxGeometry x="780" width="190" height="40" as="geometry">
            <mxRectangle width="190" height="40" as="alternateBounds" />
          </mxGeometry>
        </mxCell>
        <mxCell id="PSF_NFf5BYGH8DXuZ8QK-101" value="" style="shape=table;startSize=0;container=1;collapsible=0;childLayout=tableLayout;" vertex="1" parent="1">
          <mxGeometry x="180" y="1160" width="370" height="360" as="geometry" />
        </mxCell>
        <mxCell id="PSF_NFf5BYGH8DXuZ8QK-102" value="" style="shape=tableRow;horizontal=0;startSize=0;swimlaneHead=0;swimlaneBody=0;strokeColor=inherit;top=0;left=0;bottom=0;right=0;collapsible=0;dropTarget=0;fillColor=none;points=[[0,0.5],[1,0.5]];portConstraint=eastwest;" vertex="1" parent="PSF_NFf5BYGH8DXuZ8QK-101">
          <mxGeometry width="370" height="40" as="geometry" />
        </mxCell>
        <mxCell id="PSF_NFf5BYGH8DXuZ8QK-103" value="Cod cliente" style="shape=partialRectangle;html=1;whiteSpace=wrap;connectable=0;strokeColor=inherit;overflow=hidden;fillColor=none;top=0;left=0;bottom=0;right=0;pointerEvents=1;" vertex="1" parent="PSF_NFf5BYGH8DXuZ8QK-102">
          <mxGeometry width="100" height="40" as="geometry">
            <mxRectangle width="100" height="40" as="alternateBounds" />
          </mxGeometry>
        </mxCell>
        <mxCell id="PSF_NFf5BYGH8DXuZ8QK-104" value="Dirección" style="shape=partialRectangle;html=1;whiteSpace=wrap;connectable=0;strokeColor=inherit;overflow=hidden;fillColor=none;top=0;left=0;bottom=0;right=0;pointerEvents=1;" vertex="1" parent="PSF_NFf5BYGH8DXuZ8QK-102">
          <mxGeometry x="100" width="270" height="40" as="geometry">
            <mxRectangle width="270" height="40" as="alternateBounds" />
          </mxGeometry>
        </mxCell>
        <mxCell id="PSF_NFf5BYGH8DXuZ8QK-105" value="" style="shape=tableRow;horizontal=0;startSize=0;swimlaneHead=0;swimlaneBody=0;strokeColor=inherit;top=0;left=0;bottom=0;right=0;collapsible=0;dropTarget=0;fillColor=none;points=[[0,0.5],[1,0.5]];portConstraint=eastwest;" vertex="1" parent="PSF_NFf5BYGH8DXuZ8QK-101">
          <mxGeometry y="40" width="370" height="40" as="geometry" />
        </mxCell>
        <mxCell id="PSF_NFf5BYGH8DXuZ8QK-106" value="C001" style="shape=partialRectangle;html=1;whiteSpace=wrap;connectable=0;strokeColor=inherit;overflow=hidden;fillColor=none;top=0;left=0;bottom=0;right=0;pointerEvents=1;" vertex="1" parent="PSF_NFf5BYGH8DXuZ8QK-105">
          <mxGeometry width="100" height="40" as="geometry">
            <mxRectangle width="100" height="40" as="alternateBounds" />
          </mxGeometry>
        </mxCell>
        <mxCell id="PSF_NFf5BYGH8DXuZ8QK-107" value="Calle mayor 12" style="shape=partialRectangle;html=1;whiteSpace=wrap;connectable=0;strokeColor=inherit;overflow=hidden;fillColor=none;top=0;left=0;bottom=0;right=0;pointerEvents=1;" vertex="1" parent="PSF_NFf5BYGH8DXuZ8QK-105">
          <mxGeometry x="100" width="270" height="40" as="geometry">
            <mxRectangle width="270" height="40" as="alternateBounds" />
          </mxGeometry>
        </mxCell>
        <mxCell id="PSF_NFf5BYGH8DXuZ8QK-108" value="" style="shape=tableRow;horizontal=0;startSize=0;swimlaneHead=0;swimlaneBody=0;strokeColor=inherit;top=0;left=0;bottom=0;right=0;collapsible=0;dropTarget=0;fillColor=none;points=[[0,0.5],[1,0.5]];portConstraint=eastwest;" vertex="1" parent="PSF_NFf5BYGH8DXuZ8QK-101">
          <mxGeometry y="80" width="370" height="40" as="geometry" />
        </mxCell>
        <mxCell id="PSF_NFf5BYGH8DXuZ8QK-109" value="C001" style="shape=partialRectangle;html=1;whiteSpace=wrap;connectable=0;strokeColor=inherit;overflow=hidden;fillColor=none;top=0;left=0;bottom=0;right=0;pointerEvents=1;" vertex="1" parent="PSF_NFf5BYGH8DXuZ8QK-108">
          <mxGeometry width="100" height="40" as="geometry">
            <mxRectangle width="100" height="40" as="alternateBounds" />
          </mxGeometry>
        </mxCell>
        <mxCell id="PSF_NFf5BYGH8DXuZ8QK-110" value="Calle nueva 5" style="shape=partialRectangle;html=1;whiteSpace=wrap;connectable=0;strokeColor=inherit;overflow=hidden;fillColor=none;top=0;left=0;bottom=0;right=0;pointerEvents=1;" vertex="1" parent="PSF_NFf5BYGH8DXuZ8QK-108">
          <mxGeometry x="100" width="270" height="40" as="geometry">
            <mxRectangle width="270" height="40" as="alternateBounds" />
          </mxGeometry>
        </mxCell>
        <mxCell id="PSF_NFf5BYGH8DXuZ8QK-111" value="" style="shape=tableRow;horizontal=0;startSize=0;swimlaneHead=0;swimlaneBody=0;strokeColor=inherit;top=0;left=0;bottom=0;right=0;collapsible=0;dropTarget=0;fillColor=none;points=[[0,0.5],[1,0.5]];portConstraint=eastwest;" vertex="1" parent="PSF_NFf5BYGH8DXuZ8QK-101">
          <mxGeometry y="120" width="370" height="40" as="geometry" />
        </mxCell>
        <mxCell id="PSF_NFf5BYGH8DXuZ8QK-112" value="C002" style="shape=partialRectangle;html=1;whiteSpace=wrap;connectable=0;strokeColor=inherit;overflow=hidden;fillColor=none;top=0;left=0;bottom=0;right=0;pointerEvents=1;" vertex="1" parent="PSF_NFf5BYGH8DXuZ8QK-111">
          <mxGeometry width="100" height="40" as="geometry">
            <mxRectangle width="100" height="40" as="alternateBounds" />
          </mxGeometry>
        </mxCell>
        <mxCell id="PSF_NFf5BYGH8DXuZ8QK-113" value="Avd de la paz 3" style="shape=partialRectangle;html=1;whiteSpace=wrap;connectable=0;strokeColor=inherit;overflow=hidden;fillColor=none;top=0;left=0;bottom=0;right=0;pointerEvents=1;" vertex="1" parent="PSF_NFf5BYGH8DXuZ8QK-111">
          <mxGeometry x="100" width="270" height="40" as="geometry">
            <mxRectangle width="270" height="40" as="alternateBounds" />
          </mxGeometry>
        </mxCell>
        <mxCell id="PSF_NFf5BYGH8DXuZ8QK-114" value="" style="shape=tableRow;horizontal=0;startSize=0;swimlaneHead=0;swimlaneBody=0;strokeColor=inherit;top=0;left=0;bottom=0;right=0;collapsible=0;dropTarget=0;fillColor=none;points=[[0,0.5],[1,0.5]];portConstraint=eastwest;" vertex="1" parent="PSF_NFf5BYGH8DXuZ8QK-101">
          <mxGeometry y="160" width="370" height="40" as="geometry" />
        </mxCell>
        <mxCell id="PSF_NFf5BYGH8DXuZ8QK-115" value="C003" style="shape=partialRectangle;html=1;whiteSpace=wrap;connectable=0;strokeColor=inherit;overflow=hidden;fillColor=none;top=0;left=0;bottom=0;right=0;pointerEvents=1;" vertex="1" parent="PSF_NFf5BYGH8DXuZ8QK-114">
          <mxGeometry width="100" height="40" as="geometry">
            <mxRectangle width="100" height="40" as="alternateBounds" />
          </mxGeometry>
        </mxCell>
        <mxCell id="PSF_NFf5BYGH8DXuZ8QK-116" value="Calle del sol 7" style="shape=partialRectangle;html=1;whiteSpace=wrap;connectable=0;strokeColor=inherit;overflow=hidden;fillColor=none;top=0;left=0;bottom=0;right=0;pointerEvents=1;" vertex="1" parent="PSF_NFf5BYGH8DXuZ8QK-114">
          <mxGeometry x="100" width="270" height="40" as="geometry">
            <mxRectangle width="270" height="40" as="alternateBounds" />
          </mxGeometry>
        </mxCell>
        <mxCell id="PSF_NFf5BYGH8DXuZ8QK-117" value="" style="shape=tableRow;horizontal=0;startSize=0;swimlaneHead=0;swimlaneBody=0;strokeColor=inherit;top=0;left=0;bottom=0;right=0;collapsible=0;dropTarget=0;fillColor=none;points=[[0,0.5],[1,0.5]];portConstraint=eastwest;" vertex="1" parent="PSF_NFf5BYGH8DXuZ8QK-101">
          <mxGeometry y="200" width="370" height="40" as="geometry" />
        </mxCell>
        <mxCell id="PSF_NFf5BYGH8DXuZ8QK-118" value="C003" style="shape=partialRectangle;html=1;whiteSpace=wrap;connectable=0;strokeColor=inherit;overflow=hidden;fillColor=none;top=0;left=0;bottom=0;right=0;pointerEvents=1;" vertex="1" parent="PSF_NFf5BYGH8DXuZ8QK-117">
          <mxGeometry width="100" height="40" as="geometry">
            <mxRectangle width="100" height="40" as="alternateBounds" />
          </mxGeometry>
        </mxCell>
        <mxCell id="PSF_NFf5BYGH8DXuZ8QK-119" value="Plaza de la luna 1" style="shape=partialRectangle;html=1;whiteSpace=wrap;connectable=0;strokeColor=inherit;overflow=hidden;fillColor=none;top=0;left=0;bottom=0;right=0;pointerEvents=1;" vertex="1" parent="PSF_NFf5BYGH8DXuZ8QK-117">
          <mxGeometry x="100" width="270" height="40" as="geometry">
            <mxRectangle width="270" height="40" as="alternateBounds" />
          </mxGeometry>
        </mxCell>
        <mxCell id="PSF_NFf5BYGH8DXuZ8QK-126" style="shape=tableRow;horizontal=0;startSize=0;swimlaneHead=0;swimlaneBody=0;strokeColor=inherit;top=0;left=0;bottom=0;right=0;collapsible=0;dropTarget=0;fillColor=none;points=[[0,0.5],[1,0.5]];portConstraint=eastwest;" vertex="1" parent="PSF_NFf5BYGH8DXuZ8QK-101">
          <mxGeometry y="240" width="370" height="40" as="geometry" />
        </mxCell>
        <mxCell id="PSF_NFf5BYGH8DXuZ8QK-127" value="C004" style="shape=partialRectangle;html=1;whiteSpace=wrap;connectable=0;strokeColor=inherit;overflow=hidden;fillColor=none;top=0;left=0;bottom=0;right=0;pointerEvents=1;" vertex="1" parent="PSF_NFf5BYGH8DXuZ8QK-126">
          <mxGeometry width="100" height="40" as="geometry">
            <mxRectangle width="100" height="40" as="alternateBounds" />
          </mxGeometry>
        </mxCell>
        <mxCell id="PSF_NFf5BYGH8DXuZ8QK-128" value="Avd de los ríos 15" style="shape=partialRectangle;html=1;whiteSpace=wrap;connectable=0;strokeColor=inherit;overflow=hidden;fillColor=none;top=0;left=0;bottom=0;right=0;pointerEvents=1;" vertex="1" parent="PSF_NFf5BYGH8DXuZ8QK-126">
          <mxGeometry x="100" width="270" height="40" as="geometry">
            <mxRectangle width="270" height="40" as="alternateBounds" />
          </mxGeometry>
        </mxCell>
        <mxCell id="PSF_NFf5BYGH8DXuZ8QK-123" style="shape=tableRow;horizontal=0;startSize=0;swimlaneHead=0;swimlaneBody=0;strokeColor=inherit;top=0;left=0;bottom=0;right=0;collapsible=0;dropTarget=0;fillColor=none;points=[[0,0.5],[1,0.5]];portConstraint=eastwest;" vertex="1" parent="PSF_NFf5BYGH8DXuZ8QK-101">
          <mxGeometry y="280" width="370" height="40" as="geometry" />
        </mxCell>
        <mxCell id="PSF_NFf5BYGH8DXuZ8QK-124" value="C005" style="shape=partialRectangle;html=1;whiteSpace=wrap;connectable=0;strokeColor=inherit;overflow=hidden;fillColor=none;top=0;left=0;bottom=0;right=0;pointerEvents=1;" vertex="1" parent="PSF_NFf5BYGH8DXuZ8QK-123">
          <mxGeometry width="100" height="40" as="geometry">
            <mxRectangle width="100" height="40" as="alternateBounds" />
          </mxGeometry>
        </mxCell>
        <mxCell id="PSF_NFf5BYGH8DXuZ8QK-125" value="Calle del mar 22" style="shape=partialRectangle;html=1;whiteSpace=wrap;connectable=0;strokeColor=inherit;overflow=hidden;fillColor=none;top=0;left=0;bottom=0;right=0;pointerEvents=1;" vertex="1" parent="PSF_NFf5BYGH8DXuZ8QK-123">
          <mxGeometry x="100" width="270" height="40" as="geometry">
            <mxRectangle width="270" height="40" as="alternateBounds" />
          </mxGeometry>
        </mxCell>
        <mxCell id="PSF_NFf5BYGH8DXuZ8QK-120" value="" style="shape=tableRow;horizontal=0;startSize=0;swimlaneHead=0;swimlaneBody=0;strokeColor=inherit;top=0;left=0;bottom=0;right=0;collapsible=0;dropTarget=0;fillColor=none;points=[[0,0.5],[1,0.5]];portConstraint=eastwest;" vertex="1" parent="PSF_NFf5BYGH8DXuZ8QK-101">
          <mxGeometry y="320" width="370" height="40" as="geometry" />
        </mxCell>
        <mxCell id="PSF_NFf5BYGH8DXuZ8QK-121" value="C006" style="shape=partialRectangle;html=1;whiteSpace=wrap;connectable=0;strokeColor=inherit;overflow=hidden;fillColor=none;top=0;left=0;bottom=0;right=0;pointerEvents=1;" vertex="1" parent="PSF_NFf5BYGH8DXuZ8QK-120">
          <mxGeometry width="100" height="40" as="geometry">
            <mxRectangle width="100" height="40" as="alternateBounds" />
          </mxGeometry>
        </mxCell>
        <mxCell id="PSF_NFf5BYGH8DXuZ8QK-122" value="Urb los pinos chalet 3" style="shape=partialRectangle;html=1;whiteSpace=wrap;connectable=0;strokeColor=inherit;overflow=hidden;fillColor=none;top=0;left=0;bottom=0;right=0;pointerEvents=1;" vertex="1" parent="PSF_NFf5BYGH8DXuZ8QK-120">
          <mxGeometry x="100" width="270" height="40" as="geometry">
            <mxRectangle width="270" height="40" as="alternateBounds" />
          </mxGeometry>
        </mxCell>
        <mxCell id="PSF_NFf5BYGH8DXuZ8QK-129" value="" style="shape=table;startSize=0;container=1;collapsible=0;childLayout=tableLayout;" vertex="1" parent="1">
          <mxGeometry x="180" y="1110" width="370" height="50" as="geometry" />
        </mxCell>
        <mxCell id="PSF_NFf5BYGH8DXuZ8QK-130" value="" style="shape=tableRow;horizontal=0;startSize=0;swimlaneHead=0;swimlaneBody=0;strokeColor=inherit;top=0;left=0;bottom=0;right=0;collapsible=0;dropTarget=0;fillColor=none;points=[[0,0.5],[1,0.5]];portConstraint=eastwest;" vertex="1" parent="PSF_NFf5BYGH8DXuZ8QK-129">
          <mxGeometry width="370" height="50" as="geometry" />
        </mxCell>
        <mxCell id="PSF_NFf5BYGH8DXuZ8QK-131" value="Direcciones" style="shape=partialRectangle;html=1;whiteSpace=wrap;connectable=0;strokeColor=inherit;overflow=hidden;fillColor=none;top=0;left=0;bottom=0;right=0;pointerEvents=1;" vertex="1" parent="PSF_NFf5BYGH8DXuZ8QK-130">
          <mxGeometry width="370" height="50" as="geometry">
            <mxRectangle width="370" height="50" as="alternateBounds" />
          </mxGeometry>
        </mxCell>
        <mxCell id="PSF_NFf5BYGH8DXuZ8QK-132" value="" style="shape=table;startSize=0;container=1;collapsible=0;childLayout=tableLayout;" vertex="1" parent="1">
          <mxGeometry x="750" y="1110" width="370" height="50" as="geometry" />
        </mxCell>
        <mxCell id="PSF_NFf5BYGH8DXuZ8QK-133" value="" style="shape=tableRow;horizontal=0;startSize=0;swimlaneHead=0;swimlaneBody=0;strokeColor=inherit;top=0;left=0;bottom=0;right=0;collapsible=0;dropTarget=0;fillColor=none;points=[[0,0.5],[1,0.5]];portConstraint=eastwest;" vertex="1" parent="PSF_NFf5BYGH8DXuZ8QK-132">
          <mxGeometry width="370" height="50" as="geometry" />
        </mxCell>
        <mxCell id="PSF_NFf5BYGH8DXuZ8QK-134" value="Teléfono" style="shape=partialRectangle;html=1;whiteSpace=wrap;connectable=0;strokeColor=inherit;overflow=hidden;fillColor=none;top=0;left=0;bottom=0;right=0;pointerEvents=1;" vertex="1" parent="PSF_NFf5BYGH8DXuZ8QK-133">
          <mxGeometry width="370" height="50" as="geometry">
            <mxRectangle width="370" height="50" as="alternateBounds" />
          </mxGeometry>
        </mxCell>
        <mxCell id="PSF_NFf5BYGH8DXuZ8QK-135" value="" style="shape=table;startSize=0;container=1;collapsible=0;childLayout=tableLayout;" vertex="1" parent="1">
          <mxGeometry x="750" y="1160" width="370" height="400" as="geometry" />
        </mxCell>
        <mxCell id="PSF_NFf5BYGH8DXuZ8QK-136" value="" style="shape=tableRow;horizontal=0;startSize=0;swimlaneHead=0;swimlaneBody=0;strokeColor=inherit;top=0;left=0;bottom=0;right=0;collapsible=0;dropTarget=0;fillColor=none;points=[[0,0.5],[1,0.5]];portConstraint=eastwest;" vertex="1" parent="PSF_NFf5BYGH8DXuZ8QK-135">
          <mxGeometry width="370" height="40" as="geometry" />
        </mxCell>
        <mxCell id="PSF_NFf5BYGH8DXuZ8QK-137" value="Cod cliente" style="shape=partialRectangle;html=1;whiteSpace=wrap;connectable=0;strokeColor=inherit;overflow=hidden;fillColor=none;top=0;left=0;bottom=0;right=0;pointerEvents=1;" vertex="1" parent="PSF_NFf5BYGH8DXuZ8QK-136">
          <mxGeometry width="100" height="40" as="geometry">
            <mxRectangle width="100" height="40" as="alternateBounds" />
          </mxGeometry>
        </mxCell>
        <mxCell id="PSF_NFf5BYGH8DXuZ8QK-138" value="Teléfono" style="shape=partialRectangle;html=1;whiteSpace=wrap;connectable=0;strokeColor=inherit;overflow=hidden;fillColor=none;top=0;left=0;bottom=0;right=0;pointerEvents=1;" vertex="1" parent="PSF_NFf5BYGH8DXuZ8QK-136">
          <mxGeometry x="100" width="270" height="40" as="geometry">
            <mxRectangle width="270" height="40" as="alternateBounds" />
          </mxGeometry>
        </mxCell>
        <mxCell id="PSF_NFf5BYGH8DXuZ8QK-139" value="" style="shape=tableRow;horizontal=0;startSize=0;swimlaneHead=0;swimlaneBody=0;strokeColor=inherit;top=0;left=0;bottom=0;right=0;collapsible=0;dropTarget=0;fillColor=none;points=[[0,0.5],[1,0.5]];portConstraint=eastwest;" vertex="1" parent="PSF_NFf5BYGH8DXuZ8QK-135">
          <mxGeometry y="40" width="370" height="40" as="geometry" />
        </mxCell>
        <mxCell id="PSF_NFf5BYGH8DXuZ8QK-140" value="C001" style="shape=partialRectangle;html=1;whiteSpace=wrap;connectable=0;strokeColor=inherit;overflow=hidden;fillColor=none;top=0;left=0;bottom=0;right=0;pointerEvents=1;" vertex="1" parent="PSF_NFf5BYGH8DXuZ8QK-139">
          <mxGeometry width="100" height="40" as="geometry">
            <mxRectangle width="100" height="40" as="alternateBounds" />
          </mxGeometry>
        </mxCell>
        <mxCell id="PSF_NFf5BYGH8DXuZ8QK-141" value="&lt;span style=&quot;font-family: Arial; font-size: 13px; text-align: left; white-space-collapse: preserve; background-color: rgb(255, 255, 255);&quot;&gt;612345678&lt;/span&gt;" style="shape=partialRectangle;html=1;whiteSpace=wrap;connectable=0;strokeColor=inherit;overflow=hidden;fillColor=none;top=0;left=0;bottom=0;right=0;pointerEvents=1;" vertex="1" parent="PSF_NFf5BYGH8DXuZ8QK-139">
          <mxGeometry x="100" width="270" height="40" as="geometry">
            <mxRectangle width="270" height="40" as="alternateBounds" />
          </mxGeometry>
        </mxCell>
        <mxCell id="PSF_NFf5BYGH8DXuZ8QK-142" value="" style="shape=tableRow;horizontal=0;startSize=0;swimlaneHead=0;swimlaneBody=0;strokeColor=inherit;top=0;left=0;bottom=0;right=0;collapsible=0;dropTarget=0;fillColor=none;points=[[0,0.5],[1,0.5]];portConstraint=eastwest;" vertex="1" parent="PSF_NFf5BYGH8DXuZ8QK-135">
          <mxGeometry y="80" width="370" height="40" as="geometry" />
        </mxCell>
        <mxCell id="PSF_NFf5BYGH8DXuZ8QK-143" value="C001" style="shape=partialRectangle;html=1;whiteSpace=wrap;connectable=0;strokeColor=inherit;overflow=hidden;fillColor=none;top=0;left=0;bottom=0;right=0;pointerEvents=1;" vertex="1" parent="PSF_NFf5BYGH8DXuZ8QK-142">
          <mxGeometry width="100" height="40" as="geometry">
            <mxRectangle width="100" height="40" as="alternateBounds" />
          </mxGeometry>
        </mxCell>
        <mxCell id="PSF_NFf5BYGH8DXuZ8QK-144" value="&lt;span style=&quot;font-family: Arial; font-size: 13px; text-align: left; white-space-collapse: preserve; background-color: rgb(255, 255, 255);&quot;&gt;957587931&lt;/span&gt;" style="shape=partialRectangle;html=1;whiteSpace=wrap;connectable=0;strokeColor=inherit;overflow=hidden;fillColor=none;top=0;left=0;bottom=0;right=0;pointerEvents=1;" vertex="1" parent="PSF_NFf5BYGH8DXuZ8QK-142">
          <mxGeometry x="100" width="270" height="40" as="geometry">
            <mxRectangle width="270" height="40" as="alternateBounds" />
          </mxGeometry>
        </mxCell>
        <mxCell id="PSF_NFf5BYGH8DXuZ8QK-145" value="" style="shape=tableRow;horizontal=0;startSize=0;swimlaneHead=0;swimlaneBody=0;strokeColor=inherit;top=0;left=0;bottom=0;right=0;collapsible=0;dropTarget=0;fillColor=none;points=[[0,0.5],[1,0.5]];portConstraint=eastwest;" vertex="1" parent="PSF_NFf5BYGH8DXuZ8QK-135">
          <mxGeometry y="120" width="370" height="40" as="geometry" />
        </mxCell>
        <mxCell id="PSF_NFf5BYGH8DXuZ8QK-146" value="C002" style="shape=partialRectangle;html=1;whiteSpace=wrap;connectable=0;strokeColor=inherit;overflow=hidden;fillColor=none;top=0;left=0;bottom=0;right=0;pointerEvents=1;" vertex="1" parent="PSF_NFf5BYGH8DXuZ8QK-145">
          <mxGeometry width="100" height="40" as="geometry">
            <mxRectangle width="100" height="40" as="alternateBounds" />
          </mxGeometry>
        </mxCell>
        <mxCell id="PSF_NFf5BYGH8DXuZ8QK-147" value="&lt;span style=&quot;font-family: Arial; font-size: 13px; text-align: right; white-space-collapse: preserve; background-color: rgb(255, 255, 255);&quot;&gt;655444333&lt;/span&gt;" style="shape=partialRectangle;html=1;whiteSpace=wrap;connectable=0;strokeColor=inherit;overflow=hidden;fillColor=none;top=0;left=0;bottom=0;right=0;pointerEvents=1;" vertex="1" parent="PSF_NFf5BYGH8DXuZ8QK-145">
          <mxGeometry x="100" width="270" height="40" as="geometry">
            <mxRectangle width="270" height="40" as="alternateBounds" />
          </mxGeometry>
        </mxCell>
        <mxCell id="PSF_NFf5BYGH8DXuZ8QK-148" value="" style="shape=tableRow;horizontal=0;startSize=0;swimlaneHead=0;swimlaneBody=0;strokeColor=inherit;top=0;left=0;bottom=0;right=0;collapsible=0;dropTarget=0;fillColor=none;points=[[0,0.5],[1,0.5]];portConstraint=eastwest;" vertex="1" parent="PSF_NFf5BYGH8DXuZ8QK-135">
          <mxGeometry y="160" width="370" height="40" as="geometry" />
        </mxCell>
        <mxCell id="PSF_NFf5BYGH8DXuZ8QK-149" value="C003" style="shape=partialRectangle;html=1;whiteSpace=wrap;connectable=0;strokeColor=inherit;overflow=hidden;fillColor=none;top=0;left=0;bottom=0;right=0;pointerEvents=1;" vertex="1" parent="PSF_NFf5BYGH8DXuZ8QK-148">
          <mxGeometry width="100" height="40" as="geometry">
            <mxRectangle width="100" height="40" as="alternateBounds" />
          </mxGeometry>
        </mxCell>
        <mxCell id="PSF_NFf5BYGH8DXuZ8QK-150" value="&lt;span style=&quot;font-family: Arial; font-size: 13px; text-align: right; white-space-collapse: preserve; background-color: rgb(255, 255, 255);&quot;&gt;654321098&lt;/span&gt;" style="shape=partialRectangle;html=1;whiteSpace=wrap;connectable=0;strokeColor=inherit;overflow=hidden;fillColor=none;top=0;left=0;bottom=0;right=0;pointerEvents=1;" vertex="1" parent="PSF_NFf5BYGH8DXuZ8QK-148">
          <mxGeometry x="100" width="270" height="40" as="geometry">
            <mxRectangle width="270" height="40" as="alternateBounds" />
          </mxGeometry>
        </mxCell>
        <mxCell id="PSF_NFf5BYGH8DXuZ8QK-151" value="" style="shape=tableRow;horizontal=0;startSize=0;swimlaneHead=0;swimlaneBody=0;strokeColor=inherit;top=0;left=0;bottom=0;right=0;collapsible=0;dropTarget=0;fillColor=none;points=[[0,0.5],[1,0.5]];portConstraint=eastwest;" vertex="1" parent="PSF_NFf5BYGH8DXuZ8QK-135">
          <mxGeometry y="200" width="370" height="40" as="geometry" />
        </mxCell>
        <mxCell id="PSF_NFf5BYGH8DXuZ8QK-152" value="C004" style="shape=partialRectangle;html=1;whiteSpace=wrap;connectable=0;strokeColor=inherit;overflow=hidden;fillColor=none;top=0;left=0;bottom=0;right=0;pointerEvents=1;" vertex="1" parent="PSF_NFf5BYGH8DXuZ8QK-151">
          <mxGeometry width="100" height="40" as="geometry">
            <mxRectangle width="100" height="40" as="alternateBounds" />
          </mxGeometry>
        </mxCell>
        <mxCell id="PSF_NFf5BYGH8DXuZ8QK-153" value="&lt;span style=&quot;font-family: Arial; font-size: 13px; text-align: left; white-space-collapse: preserve; background-color: rgb(255, 255, 255);&quot;&gt;678901234&lt;/span&gt;" style="shape=partialRectangle;html=1;whiteSpace=wrap;connectable=0;strokeColor=inherit;overflow=hidden;fillColor=none;top=0;left=0;bottom=0;right=0;pointerEvents=1;" vertex="1" parent="PSF_NFf5BYGH8DXuZ8QK-151">
          <mxGeometry x="100" width="270" height="40" as="geometry">
            <mxRectangle width="270" height="40" as="alternateBounds" />
          </mxGeometry>
        </mxCell>
        <mxCell id="PSF_NFf5BYGH8DXuZ8QK-154" style="shape=tableRow;horizontal=0;startSize=0;swimlaneHead=0;swimlaneBody=0;strokeColor=inherit;top=0;left=0;bottom=0;right=0;collapsible=0;dropTarget=0;fillColor=none;points=[[0,0.5],[1,0.5]];portConstraint=eastwest;" vertex="1" parent="PSF_NFf5BYGH8DXuZ8QK-135">
          <mxGeometry y="240" width="370" height="40" as="geometry" />
        </mxCell>
        <mxCell id="PSF_NFf5BYGH8DXuZ8QK-155" value="C004" style="shape=partialRectangle;html=1;whiteSpace=wrap;connectable=0;strokeColor=inherit;overflow=hidden;fillColor=none;top=0;left=0;bottom=0;right=0;pointerEvents=1;" vertex="1" parent="PSF_NFf5BYGH8DXuZ8QK-154">
          <mxGeometry width="100" height="40" as="geometry">
            <mxRectangle width="100" height="40" as="alternateBounds" />
          </mxGeometry>
        </mxCell>
        <mxCell id="PSF_NFf5BYGH8DXuZ8QK-156" value="&lt;span style=&quot;font-family: Arial; font-size: 13px; text-align: left; white-space-collapse: preserve; background-color: rgb(255, 255, 255);&quot;&gt;957842791&lt;/span&gt;" style="shape=partialRectangle;html=1;whiteSpace=wrap;connectable=0;strokeColor=inherit;overflow=hidden;fillColor=none;top=0;left=0;bottom=0;right=0;pointerEvents=1;" vertex="1" parent="PSF_NFf5BYGH8DXuZ8QK-154">
          <mxGeometry x="100" width="270" height="40" as="geometry">
            <mxRectangle width="270" height="40" as="alternateBounds" />
          </mxGeometry>
        </mxCell>
        <mxCell id="PSF_NFf5BYGH8DXuZ8QK-157" style="shape=tableRow;horizontal=0;startSize=0;swimlaneHead=0;swimlaneBody=0;strokeColor=inherit;top=0;left=0;bottom=0;right=0;collapsible=0;dropTarget=0;fillColor=none;points=[[0,0.5],[1,0.5]];portConstraint=eastwest;" vertex="1" parent="PSF_NFf5BYGH8DXuZ8QK-135">
          <mxGeometry y="280" width="370" height="40" as="geometry" />
        </mxCell>
        <mxCell id="PSF_NFf5BYGH8DXuZ8QK-158" value="C005" style="shape=partialRectangle;html=1;whiteSpace=wrap;connectable=0;strokeColor=inherit;overflow=hidden;fillColor=none;top=0;left=0;bottom=0;right=0;pointerEvents=1;" vertex="1" parent="PSF_NFf5BYGH8DXuZ8QK-157">
          <mxGeometry width="100" height="40" as="geometry">
            <mxRectangle width="100" height="40" as="alternateBounds" />
          </mxGeometry>
        </mxCell>
        <mxCell id="PSF_NFf5BYGH8DXuZ8QK-159" value="&lt;span style=&quot;font-family: Arial; font-size: 13px; text-align: right; white-space-collapse: preserve; background-color: rgb(255, 255, 255);&quot;&gt;687654321&lt;/span&gt;" style="shape=partialRectangle;html=1;whiteSpace=wrap;connectable=0;strokeColor=inherit;overflow=hidden;fillColor=none;top=0;left=0;bottom=0;right=0;pointerEvents=1;" vertex="1" parent="PSF_NFf5BYGH8DXuZ8QK-157">
          <mxGeometry x="100" width="270" height="40" as="geometry">
            <mxRectangle width="270" height="40" as="alternateBounds" />
          </mxGeometry>
        </mxCell>
        <mxCell id="PSF_NFf5BYGH8DXuZ8QK-163" style="shape=tableRow;horizontal=0;startSize=0;swimlaneHead=0;swimlaneBody=0;strokeColor=inherit;top=0;left=0;bottom=0;right=0;collapsible=0;dropTarget=0;fillColor=none;points=[[0,0.5],[1,0.5]];portConstraint=eastwest;" vertex="1" parent="PSF_NFf5BYGH8DXuZ8QK-135">
          <mxGeometry y="320" width="370" height="40" as="geometry" />
        </mxCell>
        <mxCell id="PSF_NFf5BYGH8DXuZ8QK-164" value="C006" style="shape=partialRectangle;html=1;whiteSpace=wrap;connectable=0;strokeColor=inherit;overflow=hidden;fillColor=none;top=0;left=0;bottom=0;right=0;pointerEvents=1;" vertex="1" parent="PSF_NFf5BYGH8DXuZ8QK-163">
          <mxGeometry width="100" height="40" as="geometry">
            <mxRectangle width="100" height="40" as="alternateBounds" />
          </mxGeometry>
        </mxCell>
        <mxCell id="PSF_NFf5BYGH8DXuZ8QK-165" value="&lt;span style=&quot;font-family: Arial; font-size: 13px; text-align: left; white-space-collapse: preserve; background-color: rgb(255, 255, 255);&quot;&gt;623456786&lt;/span&gt;" style="shape=partialRectangle;html=1;whiteSpace=wrap;connectable=0;strokeColor=inherit;overflow=hidden;fillColor=none;top=0;left=0;bottom=0;right=0;pointerEvents=1;" vertex="1" parent="PSF_NFf5BYGH8DXuZ8QK-163">
          <mxGeometry x="100" width="270" height="40" as="geometry">
            <mxRectangle width="270" height="40" as="alternateBounds" />
          </mxGeometry>
        </mxCell>
        <mxCell id="PSF_NFf5BYGH8DXuZ8QK-160" value="" style="shape=tableRow;horizontal=0;startSize=0;swimlaneHead=0;swimlaneBody=0;strokeColor=inherit;top=0;left=0;bottom=0;right=0;collapsible=0;dropTarget=0;fillColor=none;points=[[0,0.5],[1,0.5]];portConstraint=eastwest;" vertex="1" parent="PSF_NFf5BYGH8DXuZ8QK-135">
          <mxGeometry y="360" width="370" height="40" as="geometry" />
        </mxCell>
        <mxCell id="PSF_NFf5BYGH8DXuZ8QK-161" value="C006" style="shape=partialRectangle;html=1;whiteSpace=wrap;connectable=0;strokeColor=inherit;overflow=hidden;fillColor=none;top=0;left=0;bottom=0;right=0;pointerEvents=1;" vertex="1" parent="PSF_NFf5BYGH8DXuZ8QK-160">
          <mxGeometry width="100" height="40" as="geometry">
            <mxRectangle width="100" height="40" as="alternateBounds" />
          </mxGeometry>
        </mxCell>
        <mxCell id="PSF_NFf5BYGH8DXuZ8QK-162" value="&lt;span style=&quot;font-family: Arial; font-size: 13px; text-align: left; white-space-collapse: preserve; background-color: rgb(255, 255, 255);&quot;&gt;957227518&lt;/span&gt;" style="shape=partialRectangle;html=1;whiteSpace=wrap;connectable=0;strokeColor=inherit;overflow=hidden;fillColor=none;top=0;left=0;bottom=0;right=0;pointerEvents=1;" vertex="1" parent="PSF_NFf5BYGH8DXuZ8QK-160">
          <mxGeometry x="100" width="270" height="40" as="geometry">
            <mxRectangle width="270" height="40" as="alternateBounds" />
          </mxGeometry>
        </mxCell>
        <mxCell id="PSF_NFf5BYGH8DXuZ8QK-166" value="&lt;font style=&quot;font-size: 16px;&quot;&gt;Aquí podría haber creado dos columnas,&amp;nbsp;&lt;/font&gt;&lt;div&gt;&lt;font style=&quot;font-size: 16px;&quot;&gt;una para teléfono fijo y otra para el móvil&lt;/font&gt;&lt;/div&gt;" style="text;strokeColor=none;fillColor=none;html=1;fontSize=24;fontStyle=1;verticalAlign=middle;align=center;" vertex="1" parent="1">
          <mxGeometry x="1250" y="1240" width="340" height="60" as="geometry" />
        </mxCell>
        <mxCell id="PSF_NFf5BYGH8DXuZ8QK-167" value="&lt;font size=&quot;1&quot;&gt;Al pasar la primera forma normal se puede ver como directamente&lt;/font&gt;&lt;div&gt;&lt;font size=&quot;1&quot;&gt;cumple con la segunda forma normal. Todos los datos dependen totalmente de la clave primaria&lt;/font&gt;&lt;/div&gt;" style="text;strokeColor=none;fillColor=none;html=1;fontSize=24;fontStyle=1;verticalAlign=middle;align=center;" vertex="1" parent="1">
          <mxGeometry x="1190" y="1380" width="460" height="60" as="geometry" />
        </mxCell>
        <mxCell id="PSF_NFf5BYGH8DXuZ8QK-170" value="También se encuentra ya en tercera formal normal ya que para estar en esta se requiere lo siguiente:&lt;div&gt;No debe haber dependencias transitivas:&lt;/div&gt;&lt;div&gt;Esto significa que ningún atributo no clave debe depender de otro atributo no clave.&lt;/div&gt;" style="text;html=1;align=center;verticalAlign=middle;whiteSpace=wrap;rounded=0;" vertex="1" parent="1">
          <mxGeometry x="1145" y="1480" width="550" height="50" as="geometry" />
        </mxCell>
        <mxCell id="PSF_NFf5BYGH8DXuZ8QK-171" value="" style="shape=table;startSize=0;container=1;collapsible=0;childLayout=tableLayout;" vertex="1" parent="1">
          <mxGeometry x="20" y="1720" width="545" height="40" as="geometry" />
        </mxCell>
        <mxCell id="PSF_NFf5BYGH8DXuZ8QK-172" value="" style="shape=tableRow;horizontal=0;startSize=0;swimlaneHead=0;swimlaneBody=0;strokeColor=inherit;top=0;left=0;bottom=0;right=0;collapsible=0;dropTarget=0;fillColor=none;points=[[0,0.5],[1,0.5]];portConstraint=eastwest;" vertex="1" parent="PSF_NFf5BYGH8DXuZ8QK-171">
          <mxGeometry width="545" height="40" as="geometry" />
        </mxCell>
        <mxCell id="PSF_NFf5BYGH8DXuZ8QK-173" value="Pedidos" style="shape=partialRectangle;html=1;whiteSpace=wrap;connectable=0;strokeColor=inherit;overflow=hidden;fillColor=none;top=0;left=0;bottom=0;right=0;pointerEvents=1;" vertex="1" parent="PSF_NFf5BYGH8DXuZ8QK-172">
          <mxGeometry width="545" height="40" as="geometry">
            <mxRectangle width="545" height="40" as="alternateBounds" />
          </mxGeometry>
        </mxCell>
        <mxCell id="PSF_NFf5BYGH8DXuZ8QK-174" value="" style="shape=table;startSize=0;container=1;collapsible=0;childLayout=tableLayout;" vertex="1" parent="1">
          <mxGeometry x="20" y="1760" width="545" height="280" as="geometry" />
        </mxCell>
        <mxCell id="PSF_NFf5BYGH8DXuZ8QK-175" value="" style="shape=tableRow;horizontal=0;startSize=0;swimlaneHead=0;swimlaneBody=0;strokeColor=inherit;top=0;left=0;bottom=0;right=0;collapsible=0;dropTarget=0;fillColor=none;points=[[0,0.5],[1,0.5]];portConstraint=eastwest;" vertex="1" parent="PSF_NFf5BYGH8DXuZ8QK-174">
          <mxGeometry width="545" height="40" as="geometry" />
        </mxCell>
        <mxCell id="PSF_NFf5BYGH8DXuZ8QK-176" value="Número localizador" style="shape=partialRectangle;html=1;whiteSpace=wrap;connectable=0;strokeColor=inherit;overflow=hidden;fillColor=none;top=0;left=0;bottom=0;right=0;pointerEvents=1;" vertex="1" parent="PSF_NFf5BYGH8DXuZ8QK-175">
          <mxGeometry width="115" height="40" as="geometry">
            <mxRectangle width="115" height="40" as="alternateBounds" />
          </mxGeometry>
        </mxCell>
        <mxCell id="PSF_NFf5BYGH8DXuZ8QK-177" value="Importe total" style="shape=partialRectangle;html=1;whiteSpace=wrap;connectable=0;strokeColor=inherit;overflow=hidden;fillColor=none;top=0;left=0;bottom=0;right=0;pointerEvents=1;" vertex="1" parent="PSF_NFf5BYGH8DXuZ8QK-175">
          <mxGeometry x="115" width="110" height="40" as="geometry">
            <mxRectangle width="110" height="40" as="alternateBounds" />
          </mxGeometry>
        </mxCell>
        <mxCell id="PSF_NFf5BYGH8DXuZ8QK-178" value="Código cliente" style="shape=partialRectangle;html=1;whiteSpace=wrap;connectable=0;strokeColor=inherit;overflow=hidden;fillColor=none;top=0;left=0;bottom=0;right=0;pointerEvents=1;" vertex="1" parent="PSF_NFf5BYGH8DXuZ8QK-175">
          <mxGeometry x="225" width="110" height="40" as="geometry">
            <mxRectangle width="110" height="40" as="alternateBounds" />
          </mxGeometry>
        </mxCell>
        <mxCell id="PSF_NFf5BYGH8DXuZ8QK-179" value="Fecha" style="shape=partialRectangle;html=1;whiteSpace=wrap;connectable=0;strokeColor=inherit;overflow=hidden;fillColor=none;top=0;left=0;bottom=0;right=0;pointerEvents=1;" vertex="1" parent="PSF_NFf5BYGH8DXuZ8QK-175">
          <mxGeometry x="335" width="90" height="40" as="geometry">
            <mxRectangle width="90" height="40" as="alternateBounds" />
          </mxGeometry>
        </mxCell>
        <mxCell id="PSF_NFf5BYGH8DXuZ8QK-180" value="Hora" style="shape=partialRectangle;html=1;whiteSpace=wrap;connectable=0;strokeColor=inherit;overflow=hidden;fillColor=none;top=0;left=0;bottom=0;right=0;pointerEvents=1;" vertex="1" parent="PSF_NFf5BYGH8DXuZ8QK-175">
          <mxGeometry x="425" width="120" height="40" as="geometry">
            <mxRectangle width="120" height="40" as="alternateBounds" />
          </mxGeometry>
        </mxCell>
        <mxCell id="PSF_NFf5BYGH8DXuZ8QK-181" value="" style="shape=tableRow;horizontal=0;startSize=0;swimlaneHead=0;swimlaneBody=0;strokeColor=inherit;top=0;left=0;bottom=0;right=0;collapsible=0;dropTarget=0;fillColor=none;points=[[0,0.5],[1,0.5]];portConstraint=eastwest;" vertex="1" parent="PSF_NFf5BYGH8DXuZ8QK-174">
          <mxGeometry y="40" width="545" height="40" as="geometry" />
        </mxCell>
        <mxCell id="PSF_NFf5BYGH8DXuZ8QK-182" value="LOC12345" style="shape=partialRectangle;html=1;whiteSpace=wrap;connectable=0;strokeColor=inherit;overflow=hidden;fillColor=none;top=0;left=0;bottom=0;right=0;pointerEvents=1;" vertex="1" parent="PSF_NFf5BYGH8DXuZ8QK-181">
          <mxGeometry width="115" height="40" as="geometry">
            <mxRectangle width="115" height="40" as="alternateBounds" />
          </mxGeometry>
        </mxCell>
        <mxCell id="PSF_NFf5BYGH8DXuZ8QK-183" value="1500 €" style="shape=partialRectangle;html=1;whiteSpace=wrap;connectable=0;strokeColor=inherit;overflow=hidden;fillColor=none;top=0;left=0;bottom=0;right=0;pointerEvents=1;" vertex="1" parent="PSF_NFf5BYGH8DXuZ8QK-181">
          <mxGeometry x="115" width="110" height="40" as="geometry">
            <mxRectangle width="110" height="40" as="alternateBounds" />
          </mxGeometry>
        </mxCell>
        <mxCell id="PSF_NFf5BYGH8DXuZ8QK-184" value="C001" style="shape=partialRectangle;html=1;whiteSpace=wrap;connectable=0;strokeColor=inherit;overflow=hidden;fillColor=none;top=0;left=0;bottom=0;right=0;pointerEvents=1;" vertex="1" parent="PSF_NFf5BYGH8DXuZ8QK-181">
          <mxGeometry x="225" width="110" height="40" as="geometry">
            <mxRectangle width="110" height="40" as="alternateBounds" />
          </mxGeometry>
        </mxCell>
        <mxCell id="PSF_NFf5BYGH8DXuZ8QK-185" value="2023-11-22" style="shape=partialRectangle;html=1;whiteSpace=wrap;connectable=0;strokeColor=inherit;overflow=hidden;fillColor=none;top=0;left=0;bottom=0;right=0;pointerEvents=1;" vertex="1" parent="PSF_NFf5BYGH8DXuZ8QK-181">
          <mxGeometry x="335" width="90" height="40" as="geometry">
            <mxRectangle width="90" height="40" as="alternateBounds" />
          </mxGeometry>
        </mxCell>
        <mxCell id="PSF_NFf5BYGH8DXuZ8QK-186" value="10:30:00" style="shape=partialRectangle;html=1;whiteSpace=wrap;connectable=0;strokeColor=inherit;overflow=hidden;fillColor=none;top=0;left=0;bottom=0;right=0;pointerEvents=1;" vertex="1" parent="PSF_NFf5BYGH8DXuZ8QK-181">
          <mxGeometry x="425" width="120" height="40" as="geometry">
            <mxRectangle width="120" height="40" as="alternateBounds" />
          </mxGeometry>
        </mxCell>
        <mxCell id="PSF_NFf5BYGH8DXuZ8QK-187" value="" style="shape=tableRow;horizontal=0;startSize=0;swimlaneHead=0;swimlaneBody=0;strokeColor=inherit;top=0;left=0;bottom=0;right=0;collapsible=0;dropTarget=0;fillColor=none;points=[[0,0.5],[1,0.5]];portConstraint=eastwest;" vertex="1" parent="PSF_NFf5BYGH8DXuZ8QK-174">
          <mxGeometry y="80" width="545" height="40" as="geometry" />
        </mxCell>
        <mxCell id="PSF_NFf5BYGH8DXuZ8QK-188" value="LOC67890" style="shape=partialRectangle;html=1;whiteSpace=wrap;connectable=0;strokeColor=inherit;overflow=hidden;fillColor=none;top=0;left=0;bottom=0;right=0;pointerEvents=1;" vertex="1" parent="PSF_NFf5BYGH8DXuZ8QK-187">
          <mxGeometry width="115" height="40" as="geometry">
            <mxRectangle width="115" height="40" as="alternateBounds" />
          </mxGeometry>
        </mxCell>
        <mxCell id="PSF_NFf5BYGH8DXuZ8QK-189" value="1200 €" style="shape=partialRectangle;html=1;whiteSpace=wrap;connectable=0;strokeColor=inherit;overflow=hidden;fillColor=none;top=0;left=0;bottom=0;right=0;pointerEvents=1;" vertex="1" parent="PSF_NFf5BYGH8DXuZ8QK-187">
          <mxGeometry x="115" width="110" height="40" as="geometry">
            <mxRectangle width="110" height="40" as="alternateBounds" />
          </mxGeometry>
        </mxCell>
        <mxCell id="PSF_NFf5BYGH8DXuZ8QK-190" value="C002" style="shape=partialRectangle;html=1;whiteSpace=wrap;connectable=0;strokeColor=inherit;overflow=hidden;fillColor=none;top=0;left=0;bottom=0;right=0;pointerEvents=1;" vertex="1" parent="PSF_NFf5BYGH8DXuZ8QK-187">
          <mxGeometry x="225" width="110" height="40" as="geometry">
            <mxRectangle width="110" height="40" as="alternateBounds" />
          </mxGeometry>
        </mxCell>
        <mxCell id="PSF_NFf5BYGH8DXuZ8QK-191" value="&#xa;2023-11-23&#xa;&#xa;" style="shape=partialRectangle;html=1;whiteSpace=wrap;connectable=0;strokeColor=inherit;overflow=hidden;fillColor=none;top=0;left=0;bottom=0;right=0;pointerEvents=1;" vertex="1" parent="PSF_NFf5BYGH8DXuZ8QK-187">
          <mxGeometry x="335" width="90" height="40" as="geometry">
            <mxRectangle width="90" height="40" as="alternateBounds" />
          </mxGeometry>
        </mxCell>
        <mxCell id="PSF_NFf5BYGH8DXuZ8QK-192" value="15:15:00" style="shape=partialRectangle;html=1;whiteSpace=wrap;connectable=0;strokeColor=inherit;overflow=hidden;fillColor=none;top=0;left=0;bottom=0;right=0;pointerEvents=1;" vertex="1" parent="PSF_NFf5BYGH8DXuZ8QK-187">
          <mxGeometry x="425" width="120" height="40" as="geometry">
            <mxRectangle width="120" height="40" as="alternateBounds" />
          </mxGeometry>
        </mxCell>
        <mxCell id="PSF_NFf5BYGH8DXuZ8QK-193" value="" style="shape=tableRow;horizontal=0;startSize=0;swimlaneHead=0;swimlaneBody=0;strokeColor=inherit;top=0;left=0;bottom=0;right=0;collapsible=0;dropTarget=0;fillColor=none;points=[[0,0.5],[1,0.5]];portConstraint=eastwest;" vertex="1" parent="PSF_NFf5BYGH8DXuZ8QK-174">
          <mxGeometry y="120" width="545" height="40" as="geometry" />
        </mxCell>
        <mxCell id="PSF_NFf5BYGH8DXuZ8QK-194" value="LOC23456" style="shape=partialRectangle;html=1;whiteSpace=wrap;connectable=0;strokeColor=inherit;overflow=hidden;fillColor=none;top=0;left=0;bottom=0;right=0;pointerEvents=1;" vertex="1" parent="PSF_NFf5BYGH8DXuZ8QK-193">
          <mxGeometry width="115" height="40" as="geometry">
            <mxRectangle width="115" height="40" as="alternateBounds" />
          </mxGeometry>
        </mxCell>
        <mxCell id="PSF_NFf5BYGH8DXuZ8QK-195" value="800 €" style="shape=partialRectangle;html=1;whiteSpace=wrap;connectable=0;strokeColor=inherit;overflow=hidden;fillColor=none;top=0;left=0;bottom=0;right=0;pointerEvents=1;" vertex="1" parent="PSF_NFf5BYGH8DXuZ8QK-193">
          <mxGeometry x="115" width="110" height="40" as="geometry">
            <mxRectangle width="110" height="40" as="alternateBounds" />
          </mxGeometry>
        </mxCell>
        <mxCell id="PSF_NFf5BYGH8DXuZ8QK-196" value="C003" style="shape=partialRectangle;html=1;whiteSpace=wrap;connectable=0;strokeColor=inherit;overflow=hidden;fillColor=none;top=0;left=0;bottom=0;right=0;pointerEvents=1;" vertex="1" parent="PSF_NFf5BYGH8DXuZ8QK-193">
          <mxGeometry x="225" width="110" height="40" as="geometry">
            <mxRectangle width="110" height="40" as="alternateBounds" />
          </mxGeometry>
        </mxCell>
        <mxCell id="PSF_NFf5BYGH8DXuZ8QK-197" value="2023-11-24" style="shape=partialRectangle;html=1;whiteSpace=wrap;connectable=0;strokeColor=inherit;overflow=hidden;fillColor=none;top=0;left=0;bottom=0;right=0;pointerEvents=1;" vertex="1" parent="PSF_NFf5BYGH8DXuZ8QK-193">
          <mxGeometry x="335" width="90" height="40" as="geometry">
            <mxRectangle width="90" height="40" as="alternateBounds" />
          </mxGeometry>
        </mxCell>
        <mxCell id="PSF_NFf5BYGH8DXuZ8QK-198" value="11:45:00" style="shape=partialRectangle;html=1;whiteSpace=wrap;connectable=0;strokeColor=inherit;overflow=hidden;fillColor=none;top=0;left=0;bottom=0;right=0;pointerEvents=1;" vertex="1" parent="PSF_NFf5BYGH8DXuZ8QK-193">
          <mxGeometry x="425" width="120" height="40" as="geometry">
            <mxRectangle width="120" height="40" as="alternateBounds" />
          </mxGeometry>
        </mxCell>
        <mxCell id="PSF_NFf5BYGH8DXuZ8QK-199" value="" style="shape=tableRow;horizontal=0;startSize=0;swimlaneHead=0;swimlaneBody=0;strokeColor=inherit;top=0;left=0;bottom=0;right=0;collapsible=0;dropTarget=0;fillColor=none;points=[[0,0.5],[1,0.5]];portConstraint=eastwest;" vertex="1" parent="PSF_NFf5BYGH8DXuZ8QK-174">
          <mxGeometry y="160" width="545" height="40" as="geometry" />
        </mxCell>
        <mxCell id="PSF_NFf5BYGH8DXuZ8QK-200" value="LOC78901" style="shape=partialRectangle;html=1;whiteSpace=wrap;connectable=0;strokeColor=inherit;overflow=hidden;fillColor=none;top=0;left=0;bottom=0;right=0;pointerEvents=1;" vertex="1" parent="PSF_NFf5BYGH8DXuZ8QK-199">
          <mxGeometry width="115" height="40" as="geometry">
            <mxRectangle width="115" height="40" as="alternateBounds" />
          </mxGeometry>
        </mxCell>
        <mxCell id="PSF_NFf5BYGH8DXuZ8QK-201" value="320 €" style="shape=partialRectangle;html=1;whiteSpace=wrap;connectable=0;strokeColor=inherit;overflow=hidden;fillColor=none;top=0;left=0;bottom=0;right=0;pointerEvents=1;" vertex="1" parent="PSF_NFf5BYGH8DXuZ8QK-199">
          <mxGeometry x="115" width="110" height="40" as="geometry">
            <mxRectangle width="110" height="40" as="alternateBounds" />
          </mxGeometry>
        </mxCell>
        <mxCell id="PSF_NFf5BYGH8DXuZ8QK-202" value="C004" style="shape=partialRectangle;html=1;whiteSpace=wrap;connectable=0;strokeColor=inherit;overflow=hidden;fillColor=none;top=0;left=0;bottom=0;right=0;pointerEvents=1;" vertex="1" parent="PSF_NFf5BYGH8DXuZ8QK-199">
          <mxGeometry x="225" width="110" height="40" as="geometry">
            <mxRectangle width="110" height="40" as="alternateBounds" />
          </mxGeometry>
        </mxCell>
        <mxCell id="PSF_NFf5BYGH8DXuZ8QK-203" value="2023-11-25" style="shape=partialRectangle;html=1;whiteSpace=wrap;connectable=0;strokeColor=inherit;overflow=hidden;fillColor=none;top=0;left=0;bottom=0;right=0;pointerEvents=1;" vertex="1" parent="PSF_NFf5BYGH8DXuZ8QK-199">
          <mxGeometry x="335" width="90" height="40" as="geometry">
            <mxRectangle width="90" height="40" as="alternateBounds" />
          </mxGeometry>
        </mxCell>
        <mxCell id="PSF_NFf5BYGH8DXuZ8QK-204" value="18:00:00" style="shape=partialRectangle;html=1;whiteSpace=wrap;connectable=0;strokeColor=inherit;overflow=hidden;fillColor=none;top=0;left=0;bottom=0;right=0;pointerEvents=1;" vertex="1" parent="PSF_NFf5BYGH8DXuZ8QK-199">
          <mxGeometry x="425" width="120" height="40" as="geometry">
            <mxRectangle width="120" height="40" as="alternateBounds" />
          </mxGeometry>
        </mxCell>
        <mxCell id="PSF_NFf5BYGH8DXuZ8QK-211" style="shape=tableRow;horizontal=0;startSize=0;swimlaneHead=0;swimlaneBody=0;strokeColor=inherit;top=0;left=0;bottom=0;right=0;collapsible=0;dropTarget=0;fillColor=none;points=[[0,0.5],[1,0.5]];portConstraint=eastwest;" vertex="1" parent="PSF_NFf5BYGH8DXuZ8QK-174">
          <mxGeometry y="200" width="545" height="40" as="geometry" />
        </mxCell>
        <mxCell id="PSF_NFf5BYGH8DXuZ8QK-212" value="LOC34789" style="shape=partialRectangle;html=1;whiteSpace=wrap;connectable=0;strokeColor=inherit;overflow=hidden;fillColor=none;top=0;left=0;bottom=0;right=0;pointerEvents=1;" vertex="1" parent="PSF_NFf5BYGH8DXuZ8QK-211">
          <mxGeometry width="115" height="40" as="geometry">
            <mxRectangle width="115" height="40" as="alternateBounds" />
          </mxGeometry>
        </mxCell>
        <mxCell id="PSF_NFf5BYGH8DXuZ8QK-213" value="400 €" style="shape=partialRectangle;html=1;whiteSpace=wrap;connectable=0;strokeColor=inherit;overflow=hidden;fillColor=none;top=0;left=0;bottom=0;right=0;pointerEvents=1;" vertex="1" parent="PSF_NFf5BYGH8DXuZ8QK-211">
          <mxGeometry x="115" width="110" height="40" as="geometry">
            <mxRectangle width="110" height="40" as="alternateBounds" />
          </mxGeometry>
        </mxCell>
        <mxCell id="PSF_NFf5BYGH8DXuZ8QK-214" value="C005" style="shape=partialRectangle;html=1;whiteSpace=wrap;connectable=0;strokeColor=inherit;overflow=hidden;fillColor=none;top=0;left=0;bottom=0;right=0;pointerEvents=1;" vertex="1" parent="PSF_NFf5BYGH8DXuZ8QK-211">
          <mxGeometry x="225" width="110" height="40" as="geometry">
            <mxRectangle width="110" height="40" as="alternateBounds" />
          </mxGeometry>
        </mxCell>
        <mxCell id="PSF_NFf5BYGH8DXuZ8QK-215" value="2021-10-16" style="shape=partialRectangle;html=1;whiteSpace=wrap;connectable=0;strokeColor=inherit;overflow=hidden;fillColor=none;top=0;left=0;bottom=0;right=0;pointerEvents=1;" vertex="1" parent="PSF_NFf5BYGH8DXuZ8QK-211">
          <mxGeometry x="335" width="90" height="40" as="geometry">
            <mxRectangle width="90" height="40" as="alternateBounds" />
          </mxGeometry>
        </mxCell>
        <mxCell id="PSF_NFf5BYGH8DXuZ8QK-216" value="19:30:00" style="shape=partialRectangle;html=1;whiteSpace=wrap;connectable=0;strokeColor=inherit;overflow=hidden;fillColor=none;top=0;left=0;bottom=0;right=0;pointerEvents=1;" vertex="1" parent="PSF_NFf5BYGH8DXuZ8QK-211">
          <mxGeometry x="425" width="120" height="40" as="geometry">
            <mxRectangle width="120" height="40" as="alternateBounds" />
          </mxGeometry>
        </mxCell>
        <mxCell id="PSF_NFf5BYGH8DXuZ8QK-205" value="" style="shape=tableRow;horizontal=0;startSize=0;swimlaneHead=0;swimlaneBody=0;strokeColor=inherit;top=0;left=0;bottom=0;right=0;collapsible=0;dropTarget=0;fillColor=none;points=[[0,0.5],[1,0.5]];portConstraint=eastwest;" vertex="1" parent="PSF_NFf5BYGH8DXuZ8QK-174">
          <mxGeometry y="240" width="545" height="40" as="geometry" />
        </mxCell>
        <mxCell id="PSF_NFf5BYGH8DXuZ8QK-206" value="LOC56789" style="shape=partialRectangle;html=1;whiteSpace=wrap;connectable=0;strokeColor=inherit;overflow=hidden;fillColor=none;top=0;left=0;bottom=0;right=0;pointerEvents=1;" vertex="1" parent="PSF_NFf5BYGH8DXuZ8QK-205">
          <mxGeometry width="115" height="40" as="geometry">
            <mxRectangle width="115" height="40" as="alternateBounds" />
          </mxGeometry>
        </mxCell>
        <mxCell id="PSF_NFf5BYGH8DXuZ8QK-207" value="100 €" style="shape=partialRectangle;html=1;whiteSpace=wrap;connectable=0;strokeColor=inherit;overflow=hidden;fillColor=none;top=0;left=0;bottom=0;right=0;pointerEvents=1;" vertex="1" parent="PSF_NFf5BYGH8DXuZ8QK-205">
          <mxGeometry x="115" width="110" height="40" as="geometry">
            <mxRectangle width="110" height="40" as="alternateBounds" />
          </mxGeometry>
        </mxCell>
        <mxCell id="PSF_NFf5BYGH8DXuZ8QK-208" value="C006" style="shape=partialRectangle;html=1;whiteSpace=wrap;connectable=0;strokeColor=inherit;overflow=hidden;fillColor=none;top=0;left=0;bottom=0;right=0;pointerEvents=1;" vertex="1" parent="PSF_NFf5BYGH8DXuZ8QK-205">
          <mxGeometry x="225" width="110" height="40" as="geometry">
            <mxRectangle width="110" height="40" as="alternateBounds" />
          </mxGeometry>
        </mxCell>
        <mxCell id="PSF_NFf5BYGH8DXuZ8QK-209" value="2023-11-26" style="shape=partialRectangle;html=1;whiteSpace=wrap;connectable=0;strokeColor=inherit;overflow=hidden;fillColor=none;top=0;left=0;bottom=0;right=0;pointerEvents=1;" vertex="1" parent="PSF_NFf5BYGH8DXuZ8QK-205">
          <mxGeometry x="335" width="90" height="40" as="geometry">
            <mxRectangle width="90" height="40" as="alternateBounds" />
          </mxGeometry>
        </mxCell>
        <mxCell id="PSF_NFf5BYGH8DXuZ8QK-210" value="09:30:00" style="shape=partialRectangle;html=1;whiteSpace=wrap;connectable=0;strokeColor=inherit;overflow=hidden;fillColor=none;top=0;left=0;bottom=0;right=0;pointerEvents=1;" vertex="1" parent="PSF_NFf5BYGH8DXuZ8QK-205">
          <mxGeometry x="425" width="120" height="40" as="geometry">
            <mxRectangle width="120" height="40" as="alternateBounds" />
          </mxGeometry>
        </mxCell>
        <mxCell id="PSF_NFf5BYGH8DXuZ8QK-217" value="Esta tabla cumple con las 3 primeras formas normales directamente&lt;div&gt;no existen duplicidades(1FN)&lt;/div&gt;&lt;div&gt;Los datos dependen totalmente de la clave primaria (2FN)&lt;/div&gt;&lt;div&gt;Ningún artículo no clave depende de otro artículo no clave (3FN)&lt;/div&gt;" style="text;html=1;align=center;verticalAlign=middle;whiteSpace=wrap;rounded=0;" vertex="1" parent="1">
          <mxGeometry x="580" y="1720" width="170" height="276" as="geometry" />
        </mxCell>
        <mxCell id="PSF_NFf5BYGH8DXuZ8QK-218" value="Solo hice estas dos tablas porque el resto son sencillas y al fin y al cabo sería repetir una y otra vez lo mismo. Yo creo que lo importante es tener claro cuales son las reglas de las 3 primeras formas normales&lt;div&gt;&lt;br&gt;&lt;/div&gt;&lt;div&gt;El la primera no puede haber duplicidades y se deben de atomizar los datos&lt;/div&gt;&lt;div&gt;En la segunda todo aquello que no dependa de la clave principal debe de sacarse fuera en otra tabla y relacionarse con la clave primaria de la tabla anterior&lt;/div&gt;&lt;div&gt;y en la tercera (quizás un poco la más liosa para mi gusto) todo atributo no clave no puede depender de otro atributo no clave&lt;/div&gt;" style="text;html=1;align=center;verticalAlign=middle;whiteSpace=wrap;rounded=0;" vertex="1" parent="1">
          <mxGeometry x="880" y="1720" width="710" height="290" as="geometry" />
        </mxCell>
      </root>
    </mxGraphModel>
  </diagram>
</mxfile>
